<svg width="122" height="64" viewBox="0 0 122 64" fill="none" xmlns="http://www.w3.org/2000/svg">
<path d="M20 43.1206L28.3846 30.0966H20.9933C20.9306 29.7214 20.9038 29.3105 20.9038 28.8549C20.9038 28.4172 20.9306 28.0152 20.9933 27.649H32.9571L33.1093 28.051L24.6621 41.1018H32.5813C32.6439 41.5127 32.6708 41.9415 32.6708 42.3702C32.6708 42.7811 32.6439 43.1742 32.5813 43.5494H20.1521L20 43.1206Z" fill="#FF4A00"/>
<path d="M44.1963 33.0714C44.1963 31.8476 43.8831 31.0079 43.2656 30.5255C42.6482 30.0521 41.7444 29.8109 40.5632 29.8109C39.8384 29.8109 39.1584 29.8645 38.532 29.9806C37.8967 30.0967 37.2882 30.2397 36.6797 30.4272C36.286 29.7484 36.0891 28.9265 36.0891 27.9797C36.796 27.7563 37.5656 27.5777 38.4157 27.4526C39.2657 27.3276 40.08 27.265 40.8675 27.265C42.9345 27.265 44.5094 27.7385 45.5922 28.6764C46.666 29.6144 47.2118 31.124 47.2118 33.1875V43.1386C46.487 43.2994 45.6101 43.4781 44.5721 43.6478C43.5341 43.8265 42.4782 43.9068 41.4044 43.9068C40.3932 43.9068 39.4716 43.8175 38.6573 43.6299C37.843 43.4423 37.145 43.1476 36.5723 42.7277C35.9996 42.3168 35.5611 41.7898 35.248 41.1466C34.9348 40.5035 34.7826 39.7263 34.7826 38.8241C34.7826 37.9397 34.9616 37.1537 35.3285 36.4837C35.6864 35.8137 36.1786 35.251 36.805 34.8133C37.4224 34.3666 38.1383 34.0361 38.9526 33.8217C39.7579 33.6073 40.608 33.4912 41.5028 33.4912C42.165 33.4912 42.7108 33.5091 43.1314 33.5359C43.552 33.5627 43.9099 33.6073 44.2052 33.6431V33.0714H44.1963ZM44.1963 36.0817C43.8831 36.037 43.4893 36.0013 43.0151 35.9567C42.5408 35.912 42.1381 35.8941 41.8071 35.8941C40.5185 35.8941 39.5431 36.1353 38.872 36.6087C38.2009 37.0822 37.8609 37.8057 37.8609 38.7794C37.8609 39.3958 37.9772 39.8871 38.2009 40.2355C38.4246 40.5838 38.7109 40.8518 39.051 41.0394C39.391 41.227 39.7668 41.3431 40.1874 41.3789C40.599 41.4235 40.9928 41.4414 41.3686 41.4414C41.8429 41.4414 42.335 41.4146 42.8451 41.361C43.3551 41.3074 43.8025 41.2359 44.1963 41.1287V36.0817Z" fill="#FF4A00"/>
<path d="M50.5674 27.6496C50.7732 27.605 50.9879 27.5782 51.2027 27.5603C51.4175 27.5425 51.6412 27.5335 51.8738 27.5335C52.0796 27.5335 52.2944 27.5425 52.527 27.5603C52.7508 27.5782 52.9745 27.6139 53.1803 27.6496C53.1982 27.6943 53.225 27.8194 53.2608 28.0338C53.2877 28.2481 53.3234 28.4804 53.3503 28.7305C53.3771 28.9806 53.4129 29.2129 53.4398 29.4451C53.4666 29.6774 53.4845 29.8203 53.4845 29.8829C53.6903 29.5523 53.9409 29.2308 54.2272 28.9181C54.5136 28.6055 54.8626 28.3285 55.2652 28.0784C55.6679 27.8283 56.1243 27.6318 56.6343 27.4889C57.1444 27.3459 57.7081 27.2745 58.3255 27.2745C59.2562 27.2745 60.1241 27.4263 60.9205 27.739C61.7169 28.0516 62.397 28.5251 62.9697 29.1772C63.5424 29.8293 63.9809 30.66 64.303 31.6605C64.6251 32.661 64.7862 33.849 64.7862 35.2157C64.7862 37.9492 64.0435 40.0841 62.567 41.6206C61.0816 43.157 58.9877 43.9342 56.2764 43.9342C55.82 43.9342 55.3547 43.9074 54.8804 43.8448C54.4062 43.7823 53.9856 43.7019 53.6366 43.5947V50.8839C53.3861 50.9285 53.1266 50.9553 52.8402 50.9732C52.5628 50.9911 52.3033 51 52.0796 51C51.8559 51 51.5964 50.9911 51.319 50.9732C51.0416 50.9553 50.7821 50.9196 50.5584 50.8839V27.6496H50.5674ZM53.6456 40.9506C54.0393 41.0935 54.442 41.2007 54.8536 41.2632C55.2652 41.3258 55.8021 41.3526 56.4732 41.3526C57.216 41.3526 57.905 41.2364 58.5224 40.9953C59.1398 40.7541 59.6767 40.3878 60.1242 39.8965C60.5716 39.3963 60.9205 38.771 61.18 38.0206C61.4395 37.2703 61.5648 36.3681 61.5648 35.3408C61.5648 33.6882 61.2606 32.3751 60.6521 31.4014C60.0436 30.4278 59.0414 29.9454 57.6544 29.9454C57.1354 29.9454 56.6433 30.0347 56.1601 30.2223C55.6858 30.4099 55.2563 30.6868 54.8894 31.062C54.5136 31.4372 54.2183 31.9017 53.9856 32.4734C53.753 33.0451 53.6456 33.715 53.6456 34.5011V40.9506Z" fill="#FF4A00"/>
<path d="M68.6161 30.0608H66.5938C66.549 29.8911 66.5222 29.7035 66.5043 29.4891C66.4864 29.2747 66.4774 29.0604 66.4774 28.8549C66.4774 28.6494 66.4864 28.4351 66.5043 28.2207C66.5222 28.0063 66.558 27.8098 66.5938 27.649H71.6316V43.5583C71.4079 43.603 71.1484 43.6298 70.871 43.6476C70.5936 43.6655 70.3341 43.6744 70.1104 43.6744C69.9046 43.6744 69.663 43.6655 69.3767 43.6476C69.0993 43.6298 68.8398 43.594 68.6161 43.5583V30.0608Z" fill="#FF4A00"/>
<path d="M78.2444 36.3589C78.2892 38.0918 78.7366 39.3692 79.5956 40.1732C80.4546 40.9771 81.7253 41.3791 83.3986 41.3791C84.8662 41.3791 86.271 41.12 87.5954 40.6019C87.7654 40.9146 87.8996 41.2898 87.9981 41.7364C88.1054 42.183 88.1591 42.6207 88.186 43.0585C87.5059 43.3443 86.7542 43.5676 85.931 43.7106C85.1167 43.8535 84.204 43.9249 83.2107 43.9249C81.7611 43.9249 80.5173 43.7195 79.4793 43.3175C78.4413 42.9155 77.5912 42.3438 76.9201 41.6113C76.249 40.8789 75.7568 40.0124 75.4436 39.003C75.1304 38.0025 74.9783 36.9038 74.9783 35.6978C74.9783 34.5187 75.1304 33.42 75.4257 32.3927C75.721 31.3654 76.1863 30.4811 76.8037 29.7218C77.4212 28.9714 78.2086 28.364 79.1482 27.9263C80.0878 27.4796 81.2063 27.2563 82.4859 27.2563C83.5866 27.2563 84.544 27.4439 85.3762 27.8191C86.2084 28.1943 86.8974 28.7034 87.4612 29.3555C88.016 30.0076 88.4455 30.7848 88.7318 31.6781C89.0182 32.5803 89.1703 33.554 89.1703 34.608C89.1703 34.8939 89.1613 35.2065 89.1345 35.5192C89.1166 35.8408 89.0898 36.1177 89.0719 36.341H78.2444V36.3589ZM86.1368 34.0631C86.1368 33.4825 86.0563 32.9287 85.9042 32.4016C85.752 31.8746 85.5194 31.419 85.2241 31.026C84.9199 30.6329 84.544 30.3203 84.0787 30.0791C83.6134 29.8379 83.0586 29.7218 82.4143 29.7218C81.1526 29.7218 80.1862 30.1059 79.5061 30.8652C78.835 31.6334 78.4234 32.6964 78.2802 34.0631H86.1368Z" fill="#FF4A00"/>
<path d="M92.5707 27.649C92.7944 27.6043 93.0181 27.5775 93.2239 27.5596C93.4297 27.5418 93.6445 27.5328 93.8772 27.5328C94.1009 27.5328 94.3335 27.5418 94.5572 27.5596C94.7809 27.5775 94.9957 27.6132 95.1747 27.649C95.2373 27.9616 95.2999 28.3636 95.3626 28.8728C95.4252 29.3819 95.4521 29.8107 95.4521 30.1591C95.8905 29.4534 96.4632 28.846 97.1791 28.3279C97.8949 27.8098 98.8077 27.5507 99.9262 27.5507C100.096 27.5507 100.266 27.5596 100.436 27.5686C100.615 27.5775 100.758 27.5954 100.884 27.6132C100.928 27.8008 100.955 27.9974 100.973 28.2028C100.991 28.4083 101 28.6227 101 28.8549C101 29.105 100.982 29.3641 100.955 29.6321C100.928 29.9 100.884 30.1591 100.848 30.4092C100.678 30.3645 100.508 30.3467 100.338 30.3467C100.159 30.3467 100.025 30.3467 99.9173 30.3467C99.3625 30.3467 98.8256 30.4271 98.3155 30.5789C97.8055 30.7308 97.3491 31.0077 96.9464 31.4008C96.5437 31.7938 96.2216 32.3298 95.98 33.0176C95.7384 33.6965 95.6221 34.5808 95.6221 35.6528V43.5583C95.3984 43.603 95.1389 43.6298 94.8615 43.6476C94.5841 43.6655 94.3246 43.6744 94.1009 43.6744C93.8772 43.6744 93.6177 43.6655 93.3403 43.6476C93.0629 43.6298 92.7944 43.594 92.5439 43.5583V27.649H92.5707Z" fill="#FF4A00"/>
<path d="M74.5577 18.2877H71.5511L73.6808 16.1617C73.5108 15.9295 73.3228 15.7062 73.126 15.5007C72.9202 15.2953 72.7054 15.1077 72.4638 14.9469L70.3341 17.0729V14.0715C70.0567 14.0268 69.7704 14 69.4751 14H69.4661C69.1708 14 68.8845 14.0268 68.6071 14.0715V17.0729L66.4774 14.9469C66.2447 15.1166 66.021 15.3042 65.8152 15.5007C65.6094 15.7062 65.4304 15.9206 65.2604 16.1617L67.3991 18.2877H64.3924C64.3924 18.2877 64.3209 18.8505 64.3209 19.1453C64.3209 19.4401 64.3477 19.7259 64.3924 20.0028H67.3991L65.2694 22.1289C65.6005 22.5934 66.0121 23.0043 66.4863 23.3437L68.616 21.2177V24.2191C68.8934 24.2638 69.1798 24.2906 69.4751 24.2906H69.484C69.7793 24.2906 70.0657 24.2638 70.3431 24.2191V21.2177L72.4728 23.3437C72.7054 23.174 72.9291 22.9864 73.1349 22.7899C73.3407 22.5844 73.5287 22.37 73.6897 22.1289L71.56 20.0028H74.5666C74.6114 19.7259 74.6382 19.4401 74.6382 19.1453V19.1364C74.6293 18.8505 74.6114 18.5647 74.5577 18.2877ZM70.7636 19.1542C70.7636 19.5383 70.692 19.9046 70.5668 20.244C70.2267 20.3691 69.8599 20.4406 69.4751 20.4406C69.0903 20.4406 68.7234 20.3691 68.3834 20.244C68.2581 19.9046 68.1865 19.5383 68.1865 19.1542V19.1453C68.1865 18.7612 68.2581 18.3949 68.3834 18.0555C68.7234 17.9304 69.0903 17.859 69.4751 17.859C69.8599 17.859 70.2267 17.9304 70.5668 18.0555C70.692 18.3949 70.7636 18.7612 70.7636 19.1542Z" fill="#FF4A00"/>
</svg>
