<svg width="122" height="64" viewBox="0 0 122 64" fill="none" xmlns="http://www.w3.org/2000/svg">
<path d="M119.754 28.1913C119.754 27.7255 119.429 27.415 118.892 27.415L117.838 27.4344L117.857 29.8022H118.432V28.9871H118.777L119.275 29.8022H119.946L119.352 28.89C119.475 28.8209 119.577 28.7196 119.648 28.5966C119.719 28.4737 119.755 28.3337 119.754 28.1913ZM118.777 28.5018H118.413V27.9002H118.835C118.91 27.8918 118.987 27.9133 119.047 27.9603C119.108 28.0072 119.148 28.0761 119.16 28.1525V28.1719C119.159 28.2199 119.147 28.267 119.127 28.3103C119.106 28.3535 119.077 28.3919 119.041 28.423C119.005 28.4541 118.963 28.4772 118.917 28.4907C118.872 28.5043 118.824 28.5081 118.777 28.5018V28.5018ZM33.7803 39.1377C32.8031 39.1377 32.1325 38.3614 32.1325 37.2163V31.9954H36.1562V28.3078H32.142L32.1037 24.0767H27.6584L27.6968 38.1673C27.6968 41.0203 29.5745 42.9612 32.3337 42.9612C33.7899 42.9612 35.1694 42.7477 36.2616 42.2431V38.6525C35.486 39.0171 34.6341 39.1837 33.7803 39.1377V39.1377ZM44.3953 28.0749C40.2566 28.0749 37.0759 31.3355 37.0759 35.6636C37.0759 39.9529 40.2566 42.9418 44.6444 42.9418C47.1161 42.9418 49.4346 42.049 50.8524 40.2052L47.4418 38.6331C46.7521 39.2736 45.6982 39.5259 44.7594 39.5259C43.2265 39.5259 41.6936 38.7301 41.4829 37.0998H51.6572C51.8101 36.5173 51.8874 35.917 51.8871 35.3142C51.8871 30.8697 48.6873 28.0749 44.4049 28.0749H44.3953ZM41.4829 34.2468C41.617 32.3059 42.9966 31.4131 44.5103 31.4131C46.2156 31.4131 47.4993 32.3835 47.4993 34.0527V34.2468H41.4829ZM23.4335 39.1377C22.4563 39.1377 21.7857 38.3614 21.7857 37.2163V31.9954H25.8094V28.3078H21.7953L21.757 24.0767H17.3117L17.35 38.1673C17.35 41.0203 19.2277 42.9612 21.9869 42.9612C23.4431 42.9612 24.8227 42.7477 25.9148 42.2431V38.6525C25.1398 39.0188 24.2874 39.1855 23.4335 39.1377V39.1377ZM7.81756 28.0749C4.00458 28.0749 0 30.6174 0 35.7412C0 40.0111 2.83578 43 6.41883 43C8.46902 43 10.021 42.1654 11.0366 40.6904L11.1707 42.7477H15.4723V35.9159C15.4723 30.7144 11.688 28.0749 7.81756 28.0749V28.0749ZM7.81756 39.0601C5.88233 39.0601 4.4836 37.6044 4.4836 35.5471C4.4836 33.4898 5.86317 32.0342 7.81756 32.0342C9.61866 32.0342 11.1132 33.6257 11.1132 35.5471C11.1132 37.4686 9.61866 39.0601 7.81756 39.0601V39.0601ZM118.681 26.3475C117.283 26.3669 116.382 27.2791 116.401 28.6377C116.42 29.9963 117.34 30.8891 118.739 30.8697C120.099 30.8503 121.019 29.9381 121 28.5601C120.981 27.1821 120.061 26.3281 118.681 26.3475V26.3475ZM118.739 30.4815C117.647 30.5009 116.899 29.7634 116.899 28.6377C116.899 27.512 117.608 26.7551 118.7 26.7357C119.793 26.7163 120.521 27.4538 120.54 28.5989C120.54 29.7052 119.812 30.4621 118.748 30.4815H118.739ZM96.9531 28.3272L93.849 37.4492L90.7067 28.3272H85.8782L91.6647 42.7283H95.995L101.782 28.3272H96.9531ZM108.469 28.0749C104.33 28.0749 101.149 31.3355 101.149 35.6636C101.149 39.9529 104.33 42.9418 108.718 42.9418C111.189 42.9418 113.508 42.049 114.926 40.2052L111.515 38.6331C110.825 39.2736 109.772 39.5259 108.833 39.5259C107.3 39.5259 105.767 38.7301 105.556 37.0998H115.731C115.883 36.5173 115.961 35.917 115.96 35.3142C115.96 30.8697 112.761 28.0749 108.469 28.0749ZM111.573 34.2468H105.556C105.69 32.3059 107.07 31.4131 108.584 31.4131C110.289 31.4131 111.573 32.3835 111.573 34.0527V34.2468ZM82.4484 22C80.8772 22 79.6893 23.0675 79.6893 24.5619C79.6893 26.0564 80.8772 27.1627 82.4484 27.1627C84.0196 27.1627 85.2076 26.0758 85.2076 24.5619C85.2076 23.0481 84.0387 22 82.4484 22V22ZM62.2722 28.0555C61.3738 28.0408 60.487 28.2618 59.698 28.6972C58.9089 29.1325 58.2445 29.7673 57.7695 30.5397L57.6162 28.3272H53.3242V42.7283H57.7695V35.1784C57.8653 33.3734 59.3023 31.9954 60.8735 31.9954C62.6363 31.9954 63.441 33.3346 63.441 35.0231V42.7089H67.8671V34.3244C67.8671 30.6756 65.6732 28.0555 62.2722 28.0555V28.0555ZM75.838 39.1377C74.8608 39.1377 74.1902 38.3614 74.1902 37.2163V31.9954H78.2139V28.3078H74.1902L74.1518 24.0767H69.7066L69.7449 38.1673C69.7449 41.0203 71.6226 42.9612 74.3818 42.9612C75.838 42.9612 77.2176 42.7477 78.3097 42.2431V38.6525C77.5376 39.0173 76.6887 39.1839 75.838 39.1377V39.1377ZM80.2066 28.3272V42.7283H84.6902V28.3272C84.0255 28.7734 83.2458 29.0113 82.4484 29.0113C81.651 29.0113 80.8713 28.7734 80.2066 28.3272V28.3272Z" fill="#1A1E22"/>
</svg>
