<svg width="122" height="64" viewBox="0 0 122 64" fill="none" xmlns="http://www.w3.org/2000/svg">
<path d="M52.625 27.0909H56.615L50.945 41.4487H47.375L41.6 27.0909H45.695L49.16 36.6979L52.625 27.0909ZM57.875 41.3431H61.76V27.0909H57.875V41.3431ZM63.545 36.6979H67.43C67.535 37.6481 68.165 38.5982 69.845 38.5982C71.315 38.5982 72.05 38.0704 72.05 37.3314C72.05 34.9032 64.175 37.2258 64.175 31.5249C64.175 28.8856 66.38 26.7742 69.845 26.7742C74.15 26.7742 75.62 29.5191 75.725 31.6305H72.05C71.945 30.6804 71.315 29.9413 69.95 29.9413C68.69 29.9413 67.955 30.5748 67.955 31.3138C67.955 33.7419 75.83 31.3138 75.83 37.2258C75.83 39.7595 73.625 41.7654 69.845 41.7654C65.33 41.6598 63.755 39.4428 63.545 36.6979ZM77.72 41.3431H81.605V27.0909H77.72V41.3431ZM90.74 38.2815C92.735 38.2815 94.31 36.8035 94.31 34.1642C94.31 31.6305 92.735 30.0469 90.74 30.0469C88.745 30.0469 87.17 31.5249 87.17 34.1642C87.17 36.8035 88.745 38.2815 90.74 38.2815ZM83.285 34.1642C83.285 30.0469 86.225 26.6686 90.74 26.6686C95.255 26.6686 98.195 30.0469 98.195 34.1642C98.195 38.2815 95.255 41.6598 90.74 41.6598C86.225 41.6598 83.285 38.2815 83.285 34.1642ZM103.55 28.7801C104.18 27.5132 105.65 26.6686 107.75 26.6686C111.215 26.6686 113 28.9912 113 32.3695V41.3431H109.115V32.7918C109.115 31.1026 108.38 29.9413 106.7 29.9413C104.81 29.9413 103.76 31.1026 103.76 33.1085V41.3431H99.875V27.0909H103.55V28.7801Z" fill="#FF3366"/>
<path d="M8 50H43.805V14H8V50Z" fill="#FF3366"/>
<path d="M20.6 25.2964C21.755 25.2964 22.7 24.4518 22.7 23.185C22.7 22.0237 21.755 21.0735 20.6 21.0735C19.445 21.0735 18.5 21.9181 18.5 23.185C18.5 24.4518 19.445 25.2964 20.6 25.2964ZM16.19 36.487C16.085 37.0149 15.98 37.5427 15.98 38.0706C15.98 39.8653 16.925 41.1322 19.025 41.1322C20.81 41.1322 22.175 40.0765 23.225 38.3873L22.595 40.921H26.06L28.055 33.0031C28.58 30.9973 29.525 29.9416 30.995 29.9416C32.15 29.9416 32.885 30.6806 32.885 31.8418C32.885 32.1586 32.885 32.5809 32.78 33.0031L31.73 36.6982C31.625 37.226 31.52 37.7539 31.52 38.2817C31.52 39.9709 32.57 41.2377 34.67 41.2377C36.455 41.2377 37.925 40.0765 38.765 37.226L37.4 36.6982C36.77 38.5984 36.14 38.9152 35.72 38.9152C35.3 38.9152 34.985 38.5984 34.985 37.965C34.985 37.6483 35.09 37.3316 35.09 37.0149L36.035 33.4254C36.245 32.5809 36.35 31.8418 36.35 31.2084C36.35 28.5691 34.775 27.1967 32.78 27.1967C30.995 27.1967 29.105 28.8858 28.16 30.575L28.79 27.5134H23.54L22.805 30.2583H25.22L23.75 36.0647C22.595 38.704 20.39 38.8096 20.075 38.704C19.655 38.5984 19.34 38.3873 19.34 37.8594C19.34 37.5427 19.445 37.0149 19.55 36.487L21.86 27.3023H16.085L15.35 30.0471H17.765L16.19 36.487Z" fill="white"/>
</svg>
