<svg width="122" height="64" viewBox="0 0 122 64" fill="none" xmlns="http://www.w3.org/2000/svg">
<path fill-rule="evenodd" clip-rule="evenodd" d="M17.4222 22.6733L20.9541 32.3147L24.6548 22.6733H29.9082L20.925 45H15.729L18.3861 38.0818L12 22.6733H17.4222ZM72.9093 22.3314C77.6529 22.3314 81.112 25.9759 81.112 30.9642C81.112 35.9524 77.6529 39.5978 72.9093 39.5978C71.1588 39.5978 69.685 39.1388 68.56 38.254L68.4871 38.1954L68.4246 38.1445V44.9949H63.3623V22.6733H67.8385V24.342L67.8642 24.3132C68.967 23.0678 70.6353 22.3789 72.6968 22.334L72.8057 22.3323L72.9093 22.3314ZM39.1288 22.3314C44.3522 22.3314 48.0546 25.9047 48.0546 30.9642C48.0546 36.0025 44.3402 39.5978 39.1288 39.5978C33.8883 39.5978 30.1678 36.0076 30.1678 30.9642C30.1678 25.8996 33.8754 22.3314 39.1288 22.3314ZM56.4886 19V22.6733H60.6529V27.0024H56.4886V32.9781C56.4886 34.3151 57.1441 35.0506 58.3386 35.0956L58.456 35.0973C59.2657 35.0973 59.8792 34.8869 60.4284 34.3643L60.4798 34.3143L60.6161 34.176H60.6538V38.9513L60.4987 39.0251C59.665 39.4196 59.1517 39.5978 57.7311 39.5978C53.7176 39.5978 51.5137 37.4345 51.428 33.3947L51.4263 33.2717L51.4255 27.0024H49.5935V22.6733H51.5634V19H56.4886ZM92.1739 22.3314C97.3973 22.3314 101.1 25.9047 101.1 30.9642C101.1 36.0025 97.3853 39.5978 92.1739 39.5978C86.9334 39.5978 83.213 36.0076 83.213 30.9642C83.213 25.8996 86.9214 22.3314 92.1739 22.3314ZM105.226 34.1047C106.758 34.1047 108 35.3348 108 36.8508C108 38.3677 106.758 39.5978 105.226 39.5978C103.694 39.5978 102.453 38.3677 102.453 36.8508C102.453 35.334 103.695 34.1047 105.226 34.1047ZM72.151 26.8319C69.8701 26.8319 68.3209 28.5031 68.3209 30.9642C68.3209 33.4261 69.8701 35.0973 72.151 35.0973C74.4611 35.0973 76.0154 33.4312 76.0154 30.9642C76.0154 28.498 74.4611 26.8319 72.151 26.8319ZM39.1279 26.8319C36.8401 26.8319 35.2644 28.5116 35.2644 30.9642C35.2644 33.4176 36.8401 35.0973 39.1288 35.0973C41.3875 35.0973 42.9589 33.4125 42.9589 30.9642C42.9589 28.5167 41.3866 26.8319 39.1279 26.8319ZM92.1739 26.8319C89.8861 26.8319 88.3095 28.5116 88.3095 30.9642C88.3095 33.4176 89.8861 35.0973 92.1739 35.0973C94.4326 35.0973 96.0041 33.4125 96.0041 30.9642C96.0041 28.5167 94.4326 26.8319 92.1739 26.8319Z" fill="#0042E4"/>
</svg>
