<svg width="122" height="64" viewBox="0 0 122 64" fill="none" xmlns="http://www.w3.org/2000/svg">
<path fill-rule="evenodd" clip-rule="evenodd" d="M52.4275 25.8814C54.4156 25.4991 56.4037 25.0967 58.372 24.7145C58.3521 33.6275 58.3521 42.5203 58.372 51.4132C56.4037 51.0108 54.4156 50.5883 52.4474 50.2061C52.3877 49.4214 52.4275 48.6367 52.4275 47.8521C52.4076 40.5486 52.4076 33.2251 52.4275 25.8814ZM100.52 29.8248C98.8504 29.8651 97.1406 30.3882 95.8483 31.4747C94.7747 32.3599 93.9994 33.5671 93.562 34.895C93.0848 36.3235 92.9854 37.8727 93.1643 39.3817C93.3632 41.112 94.0391 42.8221 95.232 44.0897C96.1664 45.0957 97.4388 45.7998 98.7709 46.1016C100.441 46.4839 102.25 46.4236 103.821 45.6791C104.974 45.156 105.928 44.2305 106.604 43.1441C107.36 41.9168 107.737 40.4883 107.857 39.0396C107.996 37.41 107.817 35.74 107.22 34.2109C106.704 32.8428 105.769 31.6155 104.517 30.8308C103.324 30.0864 101.912 29.7645 100.52 29.8248ZM99.6457 24.2115C102.528 24.0103 105.55 24.5535 108.036 26.1027C109.427 26.9679 110.62 28.1147 111.555 29.4627C112.37 30.6699 112.966 32.0179 113.384 33.4263C113.821 34.9352 113.98 36.5247 114 38.094C114 40.9711 113.344 43.9086 111.773 46.3431C110.401 48.516 108.314 50.2061 105.928 51.0913C104.377 51.6748 102.747 51.9565 101.097 51.9967C97.9955 52.0571 94.7946 51.2925 92.2697 49.4415C90.1225 47.8923 88.5519 45.6188 87.7566 43.0837C87.1999 41.3936 86.9813 39.5829 87.0011 37.7922C87.021 34.6737 87.9157 31.4948 89.8442 29.0402C91.4148 27.0081 93.6614 25.5595 96.1068 24.8352C97.24 24.473 98.4329 24.2718 99.6457 24.2115ZM14.4143 25.3985C15.8458 24.5535 17.4959 24.1511 19.1461 24.1712C21.7704 24.2718 24.2954 25.64 25.8262 27.8129C26.6016 26.7465 27.6752 25.9216 28.8283 25.3382C31.4328 24.0706 34.5939 23.8694 37.2779 24.976C38.5304 25.4991 39.6636 26.3039 40.5384 27.3501C41.4331 28.4165 42.0295 29.7041 42.3874 31.032C42.7651 32.4203 42.8645 33.8689 42.8248 35.2974C42.8248 40.6693 42.8248 46.0614 42.8248 51.4333C40.8565 51.031 38.8684 50.6084 36.8803 50.2262C36.8604 45.0755 36.8803 39.9249 36.8604 34.7743C36.8803 33.5872 36.4627 32.38 35.6277 31.5551C34.7331 30.6296 33.4209 30.187 32.1485 30.2071C31.0153 30.187 29.8621 30.529 28.9675 31.2533C27.9535 32.0581 27.4167 33.386 27.4167 34.6938C27.4167 40.2669 27.4167 45.8602 27.4167 51.4333C25.4286 51.031 23.4405 50.6084 21.4523 50.2262C21.4324 48.5764 21.4523 46.9064 21.4324 45.2365C21.4324 41.7759 21.4324 38.3153 21.4324 34.8346C21.4722 33.6476 21.0746 32.4203 20.2396 31.5753C19.504 30.8107 18.49 30.3681 17.4761 30.2474C16.5019 30.1468 15.5078 30.2272 14.5933 30.6095C13.639 31.0119 12.8238 31.7765 12.3864 32.7221C12.0882 33.3659 11.949 34.0701 11.949 34.7743C11.949 39.1201 11.949 43.466 11.949 47.8118C11.9689 49.019 11.9292 50.2262 11.9689 51.4333C9.98079 51.0511 8.01254 50.6084 6.04429 50.2463C6.00452 49.5421 6.06417 48.8178 6.00452 48.1337C6.0244 47.3289 6.0244 46.5242 6.00452 45.7194C6.06417 44.9749 6.00452 44.2104 6.0244 43.466C6.0244 41.3333 6.0244 39.2006 6.0244 37.0679C6.00452 35.74 6.04429 34.392 6.00452 33.0641C6.0244 32.3197 6.0244 31.5551 6.00452 30.8107C6.04429 29.3219 6.0244 27.8531 6.0244 26.3643C6.04429 26.2234 5.925 26.0021 6.08405 25.9216C8.0523 25.5394 10.0007 25.1571 11.9689 24.7748C11.949 25.6802 11.9689 26.5856 11.9689 27.491C12.6648 26.6459 13.4799 25.9216 14.4143 25.3985ZM79.2673 24.5736C80.2216 24.4127 81.1958 24.2517 82.1501 24.0907C82.1501 26.1832 82.1501 28.2756 82.1501 30.3681C81.1958 30.5492 80.2415 30.7302 79.2872 30.8912C77.8557 31.1326 76.3646 31.5551 75.291 32.6014C74.4162 33.4263 73.9987 34.6334 73.9192 35.8205C73.8596 36.6655 73.8993 37.5106 73.8993 38.3757C73.8993 42.7215 73.8993 47.0674 73.8993 51.4132C72.2492 51.0712 70.599 50.7292 68.929 50.4072C68.6109 50.3469 68.3127 50.2664 67.9747 50.2262C67.8952 49.7634 67.9548 49.3007 67.9349 48.8379C67.9349 44.2104 67.9349 39.603 67.9349 34.9755C67.9747 33.5269 68.2133 32.0581 68.8097 30.7101C69.3863 29.3621 70.4002 28.2153 71.5931 27.3702C73.1836 26.2637 75.0326 25.5997 76.9014 25.0967C77.6967 24.9157 78.4522 24.6943 79.2673 24.5736ZM54.8132 13.0451C55.7675 12.9243 56.8014 13.0249 57.6165 13.6084C58.5509 14.2321 59.0678 15.3588 59.0877 16.4654C59.1474 16.7873 59.0678 17.1293 59.0678 17.4513C58.9684 18.4572 58.4515 19.423 57.5966 19.9863C56.702 20.5899 55.5488 20.6905 54.4951 20.4692C53.6204 20.2881 52.8052 19.7248 52.3082 18.9401C51.7316 18.0146 51.6322 16.8477 51.8509 15.7813C52.0497 14.7753 52.7257 13.8498 53.6402 13.4072C54.018 13.2261 54.4156 13.1054 54.8132 13.0451Z" fill="#050038"/>
</svg>
