<svg width="122" height="64" viewBox="0 0 122 64" fill="none" xmlns="http://www.w3.org/2000/svg">
<path d="M49.205 21.393V38.5191L51.432 38.536V30.3766H56.804V28.2232H51.432V23.5464H58.419V21.393H49.205ZM62.431 24.8754C63.23 24.8754 63.893 24.2361 63.893 23.4286C63.893 22.6211 63.247 21.9818 62.431 21.9818C61.632 21.9818 60.969 22.6211 60.969 23.4286C60.969 24.2361 61.615 24.8754 62.431 24.8754ZM61.292 27.0288V38.536H63.519V27.0288H61.292ZM71.781 26.6923C68.823 26.6923 66.766 29.1654 66.766 32.1094C66.766 35.0535 68.823 37.5266 71.781 37.5266C73.141 37.5266 74.246 37.0219 75.062 36.1639V37.6948C75.079 39.5958 73.549 41.1772 71.611 41.1941C71.594 41.1941 71.594 41.1941 71.577 41.1941C70.863 41.1941 70.166 40.9249 69.605 40.538L68.483 42.4558C71.135 44.155 74.671 43.3979 76.371 40.7735C76.966 39.8482 77.289 38.7883 77.289 37.6948V27.0456H75.062V28.0718C74.246 27.2138 73.141 26.6923 71.781 26.6923ZM68.993 32.1094C68.993 30.2757 70.404 28.8457 72.036 28.8457C73.668 28.8457 75.062 30.2925 75.062 32.1094C75.062 33.9432 73.651 35.3564 72.036 35.3564C70.404 35.3564 68.993 33.9264 68.993 32.1094ZM85.313 28.8457C83.987 28.8625 82.916 29.9392 82.933 31.2515V38.5191H80.706V27.012H82.933V28.0718C83.613 27.1802 84.667 26.6755 85.806 26.6923C87.37 26.6923 88.577 27.4494 89.257 28.627C90.039 27.4325 91.365 26.7091 92.793 26.6923C95.326 26.6923 96.907 28.7111 96.907 31.2178V38.5191H94.697V31.2515C94.697 29.9392 93.643 28.8625 92.317 28.8457C90.991 28.8625 89.92 29.9392 89.937 31.2515V38.5191H87.693V31.2515C87.693 29.9392 86.639 28.8625 85.313 28.8457ZM108.773 28.3242C107.753 27.2643 106.325 26.6755 104.846 26.6923C101.531 26.6923 99.185 29.4682 99.185 32.7656C99.185 36.0798 101.531 38.8388 104.846 38.8388C106.325 38.8388 107.736 38.25 108.773 37.2069V38.5191H111V27.012H108.773V28.3242ZM101.412 32.7656C101.412 30.5785 103.112 28.8289 105.101 28.8289C107.073 28.8457 108.773 30.5785 108.773 32.7656C108.773 34.9526 107.073 36.6854 105.084 36.6854C103.129 36.7022 101.412 34.9694 101.412 32.7656Z" fill="black"/>
<path d="M20.4411 32.0083C20.4411 28.8792 23.0081 26.3388 26.1701 26.3388C29.3321 26.3388 31.8991 28.8792 31.8991 32.0083C31.8991 35.1374 29.3321 37.6778 26.1701 37.6778C23.0081 37.6778 20.4411 35.1374 20.4411 32.0083Z" fill="#1ABCFE"/>
<path d="M9 43.3305C9 40.2014 11.567 37.6611 14.729 37.6611H20.458V43.3305C20.458 46.4597 17.891 49 14.729 49C11.567 49 9 46.4597 9 43.3305Z" fill="#0ACF83"/>
<path d="M20.4411 26.3389L26.1701 26.3388C29.3321 26.3388 31.8991 23.7986 31.8991 20.6695C31.8991 17.5403 29.3321 15 26.1701 15H20.4411V26.3389Z" fill="#FF7262"/>
<path d="M9 20.6859C9 23.8151 11.567 26.3554 14.729 26.3554H20.458V15.0333H14.729C11.567 15.0165 9 17.5568 9 20.6859Z" fill="#F24E1E"/>
<path d="M9 32.0082C9 35.1373 11.567 37.6776 14.729 37.6776H20.458V26.3554H14.729C11.567 26.3386 9 28.879 9 32.0082Z" fill="#A259FF"/>
</svg>
