<svg width="122" height="64" viewBox="0 0 122 64" fill="none" xmlns="http://www.w3.org/2000/svg">
<path d="M11.9297 24.8521C11.861 24.7571 11.7828 24.7069 11.6956 24.7069C11.6239 24.7069 11.5587 24.7404 11.5164 24.7691C10.8561 25.3131 9.95279 27.616 9.21232 30.6514L9.86763 30.6593C11.1623 30.6744 12.4988 30.6906 13.8204 30.712C13.4724 29.3217 13.1427 28.1303 12.8409 27.1681C12.3998 25.7621 12.102 25.1324 11.9297 24.8521Z" fill="#10069F"/>
<path d="M13.3991 19C6.55123 19 1 24.8202 1 32C1 39.1798 6.55123 45 13.3991 45C20.2471 45 25.7983 39.1798 25.7983 32C25.7983 24.8202 20.2471 19 13.3991 19ZM22.3151 32.236C22.3141 32.237 22.3131 32.2376 22.3121 32.2386C22.2987 32.2501 22.2852 32.2605 22.2708 32.271C22.2663 32.2741 22.2618 32.2778 22.2568 32.2809C22.2474 32.2871 22.2374 32.2934 22.2279 32.2992C22.219 32.3049 22.21 32.3101 22.2011 32.3153C22.2006 32.3159 22.2001 32.3159 22.1996 32.3164C22.1084 32.3665 22.0044 32.3952 21.8943 32.3952C21.8853 32.3952 16.0209 32.3952 16.0209 32.3952C16.0677 32.5994 16.119 32.8312 16.1748 33.0833C16.4964 34.5405 17.3519 38.4118 18.2602 38.4118L18.2781 38.4123L18.2881 38.4107H18.3055C19.0151 38.4107 19.3771 37.3352 20.1709 34.9785L20.1803 34.9498C20.3078 34.5713 20.4517 34.1442 20.6076 33.6926L20.6474 33.5772C20.6878 33.4645 20.7918 33.3841 20.9138 33.3841C21.0707 33.3841 21.1982 33.5177 21.1982 33.6822C21.1982 33.7119 21.1937 33.7406 21.1862 33.7678L21.1533 33.8837C21.0707 34.1641 20.9825 34.5462 20.881 34.9884C20.4079 37.0439 19.6933 40.1493 17.8599 40.1493H17.8464C16.6618 40.1394 15.9527 38.1539 15.6499 37.306C15.0837 35.7204 14.6555 34.0309 14.2422 32.3947H8.83537L7.71297 36.161L7.69654 36.1475C7.59396 36.3166 7.4137 36.4252 7.21501 36.4252C6.9018 36.4252 6.64535 36.1579 6.64385 35.8295L6.64485 35.8092L6.71257 35.3831C6.86744 34.4152 7.05318 33.4107 7.26531 32.3952H4.98267L4.9742 32.3863C4.5599 32.3237 4.24171 31.9405 4.24171 31.4936C4.24171 31.0555 4.53749 30.6822 4.94482 30.6065C4.98217 30.6013 5.05786 30.5945 5.21173 30.5945C5.24459 30.5945 5.28144 30.5945 5.32277 30.5956C6.0463 30.6086 6.81416 30.6206 7.6562 30.6321C8.84782 25.5553 10.2282 22.9783 11.7594 22.971C13.4021 22.971 14.6211 26.8929 15.5966 30.7298L15.6006 30.7449C17.6049 30.7872 19.7411 30.8483 21.8181 31.0044L21.9053 31.0127C21.9386 31.0133 21.9715 31.0169 22.0034 31.0221L22.0153 31.0232C22.0188 31.0237 22.0223 31.0247 22.0258 31.0258C22.0278 31.0263 22.0293 31.0268 22.0312 31.0268C22.3335 31.0905 22.5576 31.3683 22.5576 31.7024C22.5576 31.9165 22.463 32.1091 22.3151 32.236Z" fill="#10069F"/>
<path d="M32.6791 35.2526L31.6961 37.7994H28.8403L34.2741 24.5012H36.7962L42.211 37.7999H39.3737L38.3907 35.2531L32.6791 35.2526ZM35.5165 27.8645L33.6621 32.7059H37.4077L35.5165 27.8645Z" fill="#10069F"/>
<path d="M58.3065 32.6865V37.7999H55.7291V32.9199C55.7291 31.4424 55.0429 30.6452 53.8378 30.6452C53.3001 30.6452 52.7065 30.8979 52.1687 31.6758C52.206 32.0063 52.2429 32.3367 52.2429 32.6865V37.7999H49.6655V32.9199C49.6655 31.4424 48.9793 30.6452 47.7553 30.6452C47.2548 30.6452 46.6981 30.9563 46.1793 31.6951V37.7999H43.6018V28.4869H46.1793V29.0507C46.7355 28.5062 47.329 28.195 48.3673 28.195C49.4986 28.195 50.4995 28.6618 51.2046 29.5169C52.1503 28.6033 53.0406 28.195 54.4314 28.195C56.6005 28.195 58.3065 29.9644 58.3065 32.6865Z" fill="#10069F"/>
<path d="M69.6366 33.1528C69.6366 35.8551 67.6711 37.9936 65.2232 37.9936C64.2218 37.9936 63.3872 37.7216 62.7015 37.2548V42.2904H60.1241V28.4863H62.7015V29.0309C63.3877 28.5641 64.2223 28.2921 65.2232 28.2921C67.6706 28.2926 69.6366 30.4118 69.6366 33.1528ZM67.096 33.1528C67.096 31.7724 66.1319 30.5669 64.7964 30.5669C64.036 30.5669 63.2756 30.8389 62.701 31.6554V34.6303C63.2756 35.4275 64.036 35.6995 64.7964 35.6995C66.1314 35.7 67.096 34.5139 67.096 33.1528Z" fill="#10069F"/>
<path d="M73.6601 37.7994H71.0826V23.9959H73.6601V37.7994Z" fill="#10069F"/>
<path d="M75.9781 25.2014C75.9781 24.2877 76.6643 23.6069 77.5357 23.6069C78.3887 23.6069 79.0749 24.2872 79.0749 25.2014C79.0749 26.0957 78.3887 26.7567 77.5357 26.7567C76.6643 26.7567 75.9781 26.0957 75.9781 25.2014ZM78.8339 28.4869V37.7999H76.2564V28.4869H78.8339Z" fill="#10069F"/>
<path d="M88.1979 37.6636C87.1223 38.0134 86.6403 38.0912 85.8057 38.0912C83.6546 38.0912 82.2454 36.4967 82.2454 34.0863V30.7616H80.3726V28.4869H82.2454V25.1622H84.8044V28.4869H88.0122V30.7616H84.8044V34.0669C84.8044 35.1169 85.4163 35.6029 86.362 35.6029C86.844 35.6029 87.3633 35.4865 87.8638 35.3502L88.1979 37.6636Z" fill="#10069F"/>
<path d="M98.5451 37.7994H95.9676V37.1384C95.2446 37.7409 94.4285 38.0912 93.4271 38.0912C91.0906 38.0912 89.533 36.3218 89.533 33.6195V28.4869H92.1105V33.3668C92.1105 34.8443 92.8151 35.6416 94.0206 35.6416C94.6695 35.6416 95.3741 35.2333 95.9676 34.4752V28.4869H98.5451V37.7994Z" fill="#10069F"/>
<path d="M109.486 37.7994H106.909V37.2548C106.223 37.7216 105.388 37.9936 104.387 37.9936C101.939 37.9936 99.9548 35.8744 99.9548 33.1329C99.9548 30.4306 101.939 28.2916 104.387 28.2916C105.388 28.2916 106.223 28.5636 106.909 29.0304V23.9959H109.486V37.7994ZM106.908 34.6308V31.6559C106.334 30.8587 105.573 30.5867 104.813 30.5867C103.459 30.5867 102.513 31.7729 102.513 33.1334C102.513 34.5138 103.459 35.7194 104.813 35.7194C105.573 35.7194 106.334 35.4473 106.908 34.6308Z" fill="#10069F"/>
<path d="M119.944 33.8336H113.399C113.603 34.9221 114.289 35.7778 115.698 35.7778C116.421 35.7778 116.922 35.5445 117.2 35.0777H119.889C119.407 36.8664 117.738 38.0912 115.642 38.0912C112.787 38.0912 110.858 35.9334 110.858 33.1528C110.858 30.2755 112.768 28.195 115.568 28.195C118.109 28.195 120 30.0808 120 32.9585C120 33.3475 119.982 33.561 119.944 33.8336ZM113.417 32.2391H117.441C117.293 31.0728 116.625 30.4311 115.587 30.4311C114.344 30.4311 113.658 31.1892 113.417 32.2391Z" fill="#10069F"/>
</svg>
