<svg width="122" height="64" viewBox="0 0 122 64" fill="none" xmlns="http://www.w3.org/2000/svg">
<path d="M28.3258 39.1436C28.2408 39.0918 28.1048 39.1091 28.0028 39.2645C27.3229 40.1971 24.8754 43.254 21.6799 43.254C16.6487 43.254 13.2833 38.8673 13.2833 32.339C13.2833 26.5707 16.2578 22.3912 20.3541 22.3912C21.017 22.3912 21.6629 22.6158 22.1898 23.0303L26.4561 26.3462C26.5581 26.4325 26.6941 26.4498 26.813 26.3807C26.932 26.3116 27 26.1908 27 26.0699V22.2876C27 22.1495 26.932 22.0286 26.813 21.9595C25.3173 21.2341 23.3966 20.8196 21.4079 20.8196C14.0991 20.8196 9 26.1908 9 33.8934C9 40.9052 13.5042 46 19.7082 46C24.7394 46 27.7479 42.0278 28.4448 39.5236C28.5127 39.3163 28.4278 39.1954 28.3258 39.1436ZM45.8329 43.9621C45.7989 43.9275 45.7819 43.893 45.7819 43.8412V32.0973C45.7819 29.4031 43.8612 27.5551 40.9887 27.5206C38.6091 27.486 36.5184 29.0922 35.4986 29.8694C35.3626 29.973 35.2436 30.0593 35.1416 30.1284C35.1246 30.1457 35.1076 30.1457 35.1076 30.1284C35.0907 30.1284 35.0907 30.1112 35.0907 30.0939V19.3516C35.0907 19.248 35.0397 19.1444 34.9547 19.0753C34.8697 19.0062 34.7677 18.989 34.6657 19.0062C34.6317 19.0062 31.0623 19.5934 29.9065 19.8698C29.7705 19.9043 29.6686 20.0252 29.6686 20.1634C29.6516 20.3015 29.7195 20.4397 29.8555 20.5088C29.8895 20.5433 30.8414 21.1996 31.1473 21.355C31.2493 21.4068 31.3173 21.5277 31.3173 21.6486V43.8239C31.3173 43.8757 31.3003 43.9103 31.2833 43.9448L30.0425 44.8601C29.9405 44.9638 29.9065 45.1192 29.9575 45.2401C30.0085 45.3783 30.1275 45.4646 30.2805 45.4646H36.1955C36.3314 45.4646 36.4674 45.3783 36.5184 45.2401C36.5694 45.1019 36.5354 44.9465 36.4334 44.8429L35.2096 43.9448C35.1756 43.9103 35.1586 43.8585 35.1586 43.8239V31.9246C35.1586 31.8727 35.1756 31.8209 35.2266 31.7864C36.3484 30.802 37.4023 30.2493 38.4901 30.0766C39.3739 29.9384 40.2748 30.232 40.9547 30.8365C41.6516 31.4582 42.0425 32.3563 42.0425 33.3062V43.8066C42.0425 43.8412 42.0255 43.893 42.0085 43.9275L40.7507 44.8774C40.6487 44.981 40.6147 45.1365 40.6827 45.2574C40.7337 45.3955 40.8527 45.4819 41.0057 45.4819H46.9037C47.0907 45.4819 47.2436 45.3092 47.2436 45.1192C47.2436 45.0329 47.2096 44.9292 47.1416 44.8774C47.0737 44.8947 45.8329 43.9621 45.8329 43.9621ZM63.5269 39.5236C63.3909 39.4545 63.238 39.489 63.136 39.6272C62.2181 40.8879 60.2974 42.9949 57.8329 42.9949C54.1785 42.9949 51.7309 40.0762 51.5779 35.5514C51.5779 35.4995 51.5949 35.465 51.6289 35.4305C51.6629 35.3959 51.7139 35.3787 51.7649 35.3787H63.289C63.3909 35.3787 63.4929 35.3268 63.5609 35.2405C63.6289 35.1541 63.6459 35.0505 63.6289 34.9469C62.6771 30.0593 60.2295 27.486 56.5921 27.486C51.9348 27.486 48.4164 31.6137 48.4164 37.0884C48.4164 42.4077 51.6289 45.9827 56.4221 45.9827C59.7705 45.9827 62.4221 43.7721 63.6629 39.9035C63.7139 39.7654 63.6629 39.5926 63.5269 39.5236ZM51.6119 33.8934C51.9348 30.7329 53.5156 28.8504 55.8102 28.8504C57.9008 28.8504 59.1076 30.3529 59.8725 33.8761C59.8895 33.9797 59.8385 34.0661 59.7365 34.0834C59.7195 34.0834 59.7195 34.0834 59.7025 34.0834H51.7819C51.7309 34.0834 51.6799 34.0661 51.6459 34.0143C51.6289 33.997 51.6119 33.9452 51.6119 33.8934ZM79.8272 40.2489C79.7252 40.1971 79.5722 40.1971 79.4703 40.3525L79.4023 40.4562C78.6884 41.5442 77.7026 43.0467 75.136 43.0467C71.5326 43.0467 68.898 39.8862 68.898 35.5341C68.898 31.8209 70.8357 28.9022 73.3003 28.9022C73.4533 28.9022 73.6062 28.9195 73.7592 28.9368C74.0652 28.9713 74.3711 29.0922 74.6261 29.2994L78.3484 32.2009C78.4504 32.2872 78.5864 32.3045 78.7054 32.2354C78.8244 32.1663 78.8923 32.0454 78.8923 31.9246V28.695C78.8923 28.5568 78.8244 28.4359 78.7054 28.3841C77.5666 27.8314 76.0198 27.486 74.5411 27.486C69.3739 27.486 65.7705 31.4582 65.7705 37.123C65.7705 42.425 68.813 45.9827 73.3343 45.9827C77.7195 45.9827 79.2323 42.9259 79.9802 40.6289C80.0312 40.4907 79.9802 40.318 79.8272 40.2489ZM110.728 27.8142C110.303 27.5897 109.81 27.4688 109.334 27.486C108.093 27.486 106.53 28.4705 104.711 30.4047C104.711 30.422 104.694 30.422 104.677 30.4047C104.66 30.4047 104.66 30.3875 104.66 30.3702L104.558 27.8833C104.558 27.7796 104.49 27.676 104.422 27.6242C104.337 27.5551 104.235 27.5378 104.133 27.5724L99.6459 28.8849C99.5269 28.9195 99.4249 29.0231 99.4079 29.144C99.3739 29.2649 99.4249 29.4031 99.5099 29.4894L100.989 30.8711C101.023 30.9056 101.04 30.9574 101.04 31.0092V43.8239C101.04 43.8757 101.023 43.9103 100.989 43.9448L99.9179 44.8601C99.8159 44.9638 99.7819 45.1192 99.8329 45.2401C99.8839 45.3783 100.003 45.4646 100.156 45.4646H105.833C105.969 45.4646 106.105 45.3783 106.156 45.2401C106.207 45.1019 106.173 44.9465 106.054 44.8429L104.915 43.9448C104.881 43.9103 104.864 43.8585 104.864 43.8066V32.6845C104.864 32.529 104.898 32.3909 104.966 32.2527C105.221 31.7518 105.646 31.2855 106.156 30.9056C106.683 30.5256 107.193 30.1802 107.856 30.3529C108.348 30.4738 109.368 31.2683 109.98 31.7346C110.201 31.9073 110.371 32.0454 110.473 32.0973C110.575 32.1663 110.711 32.1663 110.83 32.1145C110.932 32.0454 111 31.9418 111 31.8037V28.2287C110.983 28.056 110.881 27.9005 110.728 27.8142ZM90.4504 34.377C90.4164 34.3424 90.5014 34.2561 90.5864 34.1697L96.5184 28.5223C96.6204 28.4186 96.6374 28.2459 96.5524 28.125C96.5014 28.0387 96.3994 28.0042 96.3144 28.0042H92.0142C91.8272 28.0042 91.6572 28.1596 91.6572 28.3496C91.6572 28.4359 91.6742 28.505 91.7252 28.5741L92.847 30.1112C92.898 30.1802 92.898 30.2839 92.83 30.3529L86.5921 36.3458V30.4047V19.3862C86.5921 19.1962 86.4391 19.0408 86.2521 19.0408C86.2181 19.0408 86.2011 19.0408 86.1671 19.058C86.1331 19.058 82.5637 19.6452 81.4079 19.9216C81.272 19.9561 81.17 20.077 81.17 20.2152C81.153 20.3533 81.221 20.4915 81.3399 20.5606C81.3739 20.5951 82.2578 21.1996 82.6147 21.3896C82.7167 21.4414 82.7847 21.5623 82.7847 21.6832V43.8412C82.7847 43.8757 82.7677 43.9275 82.7507 43.9621L81.4929 44.912C81.3569 45.0501 81.3569 45.2746 81.4929 45.4128C81.5609 45.4819 81.6459 45.5164 81.7479 45.5164H87.6629C87.7989 45.5164 87.9348 45.4301 87.9858 45.2919C88.0368 45.1537 88.0028 44.9983 87.9008 44.8947L86.6771 43.9966C86.6431 43.9621 86.6261 43.9103 86.6261 43.8757V38.1419C86.6261 38.0901 86.6431 38.0556 86.6771 38.021L87.8839 36.8121C87.9518 36.743 88.0708 36.743 88.1388 36.8121L88.1558 36.8294C88.1898 36.8812 91.5722 41.7169 93.272 44.1175C93.3059 44.1521 93.289 44.2039 93.255 44.2384L92.4221 44.9638C92.2861 45.1019 92.2861 45.3265 92.4051 45.4646C92.4731 45.5337 92.5751 45.5682 92.6601 45.5682H98.1671C98.3371 45.5682 98.4051 45.4819 98.4391 45.4128C98.5071 45.2574 98.3711 45.0329 98.2861 44.9292C98.0652 44.6529 90.5524 34.5151 90.4504 34.377Z" fill="#043F93"/>
</svg>
