<svg width="122" height="64" viewBox="0 0 122 64" fill="none" xmlns="http://www.w3.org/2000/svg">
<path d="M48.15 34.3916L46.0611 29.0018C45.9759 28.7814 45.6501 28.7814 45.5647 29.0018L43.4762 34.3919C43.4614 34.4303 43.4564 34.4714 43.4618 34.512C43.4672 34.5525 43.4828 34.5912 43.5072 34.6247C43.5316 34.6583 43.5641 34.6856 43.6019 34.7046C43.6397 34.7235 43.6818 34.7333 43.7245 34.7333H47.9017C47.9444 34.7333 47.9865 34.7234 48.0243 34.7045C48.0621 34.6856 48.0946 34.6582 48.119 34.6246C48.1434 34.5911 48.1589 34.5524 48.1643 34.5118C48.1697 34.4713 48.1649 34.4299 48.15 34.3916ZM49.115 37.4211H42.5114C42.4574 37.4212 42.4047 37.437 42.3603 37.4665C42.316 37.4961 42.2821 37.5379 42.2633 37.5863L40.9633 40.94C40.9445 40.9885 40.9106 41.0303 40.8662 41.0599C40.8219 41.0894 40.7692 41.1052 40.7151 41.1052H37.853C37.8097 41.1052 37.7671 41.0951 37.7289 41.0756C37.6907 41.0562 37.658 41.0281 37.6338 40.9938C37.6095 40.9595 37.5944 40.92 37.5898 40.8789C37.5852 40.8377 37.5912 40.7961 37.6073 40.7576L44.1969 25.0446C44.2166 24.9976 44.2506 24.9574 44.2944 24.9291C44.3382 24.9008 44.3899 24.8857 44.4427 24.8858H47.1833C47.2913 24.8858 47.3885 24.9486 47.429 25.0446L54.0184 40.7574C54.0345 40.7959 54.0406 40.8376 54.036 40.8788C54.0315 40.92 54.0164 40.9595 53.9921 40.9939C53.9679 41.0282 53.9352 41.0564 53.8969 41.0758C53.8587 41.0953 53.816 41.1054 53.7727 41.1054H50.9111C50.857 41.1054 50.8043 41.0895 50.7599 41.06C50.7156 41.0304 50.6817 40.9886 50.663 40.94L49.3627 37.5863C49.3439 37.5379 49.3101 37.4961 49.2657 37.4665C49.2214 37.437 49.169 37.4212 49.115 37.4211ZM55.3594 30.4003H57.8074C57.8776 30.4003 57.9449 30.427 57.9945 30.4745C58.0442 30.522 58.0721 30.5864 58.0721 30.6536V40.8519C58.0721 40.9191 58.0442 40.9835 57.9945 41.031C57.9449 41.0785 57.8776 41.1052 57.8074 41.1052H55.3594C55.2892 41.1052 55.2218 41.0785 55.1722 41.031C55.1225 40.9835 55.0947 40.9191 55.0947 40.8519V30.6535C55.0947 30.5863 55.1225 30.5218 55.1722 30.4743C55.2218 30.4268 55.2892 30.4003 55.3594 30.4003ZM67.0001 32.881C67.0001 32.9482 66.9722 33.0126 66.9225 33.0601C66.8729 33.1077 66.8056 33.1344 66.7354 33.1344H66.6613C65.4508 33.1344 64.563 33.4124 63.9983 33.9685C63.4333 34.5245 63.1512 35.4438 63.1512 36.7259V40.8519C63.1512 40.9191 63.1234 40.9835 63.0737 41.031C63.0241 41.0785 62.9567 41.1052 62.8865 41.1052H60.4625C60.3923 41.1052 60.325 41.0785 60.2754 41.031C60.2257 40.9835 60.1978 40.9191 60.1978 40.8519V30.6535C60.1978 30.5863 60.2257 30.5218 60.2754 30.4743C60.325 30.4268 60.3923 30.4001 60.4625 30.4001H62.8622C62.9324 30.4001 62.9997 30.4268 63.0494 30.4743C63.099 30.5218 63.1269 30.5863 63.1269 30.6535V32.6707H63.1754C63.4659 31.8366 63.9258 31.1959 64.5554 30.7476C65.1845 30.2998 65.9592 30.0756 66.879 30.0756H67.0001V32.881ZM73.6936 32.7867C73.6234 32.7867 73.5561 32.8134 73.5064 32.8609C73.4568 32.9085 73.4289 32.9729 73.4289 33.0401V37.282C73.4289 37.7146 73.5171 38.0235 73.695 38.2088C73.8724 38.3941 74.1791 38.4868 74.6148 38.4868H74.8585C74.9287 38.4868 74.996 38.5135 75.0457 38.5611C75.0953 38.6086 75.1232 38.673 75.1232 38.7402V40.8748C75.1232 40.942 75.0953 41.0065 75.0457 41.054C74.996 41.1015 74.9287 41.1282 74.8585 41.1282H73.8159C72.7347 41.1282 71.9037 40.8618 71.3227 40.3289C70.7416 39.796 70.4511 39.0046 70.4511 37.9539V33.0401C70.4511 32.9729 70.4232 32.9085 70.3736 32.8609C70.324 32.8134 70.2566 32.7867 70.1864 32.7867H68.6584C68.5882 32.7867 68.5208 32.76 68.4712 32.7125C68.4215 32.665 68.3937 32.6005 68.3937 32.5333V30.6535C68.3937 30.5863 68.4215 30.5218 68.4712 30.4743C68.5208 30.4268 68.5882 30.4001 68.6584 30.4001H70.1866C70.2568 30.4001 70.3241 30.3734 70.3738 30.3259C70.4234 30.2784 70.4513 30.2139 70.4513 30.1467V26.3668C70.4513 26.2996 70.4792 26.2352 70.5288 26.1877C70.5785 26.1402 70.6458 26.1135 70.716 26.1135H73.164C73.2342 26.1135 73.3015 26.1402 73.3512 26.1877C73.4008 26.2352 73.4287 26.2996 73.4287 26.3668V30.1467C73.4287 30.2139 73.4566 30.2784 73.5062 30.3259C73.5559 30.3734 73.6232 30.4001 73.6934 30.4001H75.4636C75.5338 30.4001 75.6011 30.4268 75.6508 30.4743C75.7004 30.5218 75.7283 30.5863 75.7283 30.6535V32.5335C75.7283 32.6007 75.7004 32.6652 75.6508 32.7127C75.6011 32.7602 75.5338 32.7869 75.4636 32.7869L73.6936 32.7867ZM84.9032 37.9308C85.46 37.3747 85.7382 36.6487 85.7382 35.7526C85.7382 34.857 85.46 34.1306 84.9032 33.5746C84.3464 33.0185 83.616 32.7404 82.7123 32.7404C81.8084 32.7404 81.0785 33.0185 80.5216 33.5746C79.965 34.1306 79.6865 34.857 79.6865 35.7526C79.6865 36.6487 79.965 37.3747 80.5216 37.9308C81.0785 38.4869 81.8084 38.7649 82.7123 38.7649C83.616 38.7649 84.3464 38.4869 84.9032 37.9308ZM79.2508 40.7807C78.4278 40.3329 77.778 39.6801 77.3022 38.8228C76.826 37.9656 76.5881 36.9423 76.5881 35.7526C76.5881 34.5634 76.826 33.5398 77.3022 32.6825C77.778 31.8252 78.4278 31.1729 79.2508 30.7246C80.0739 30.2766 80.9774 30.0526 81.962 30.0526C82.8334 30.0526 83.5797 30.2148 84.2014 30.5391C84.8222 30.8634 85.3184 31.3193 85.6899 31.9063H85.7382V30.6535C85.7382 30.5863 85.7661 30.5218 85.8158 30.4743C85.8654 30.4268 85.9327 30.4001 86.0029 30.4001H88.4268C88.497 30.4001 88.5643 30.4268 88.614 30.4743C88.6636 30.5218 88.6915 30.5863 88.6915 30.6535V40.8517C88.6915 40.9189 88.6636 40.9833 88.614 41.0309C88.5643 41.0784 88.497 41.1051 88.4268 41.1051H86.0029C85.9327 41.1051 85.8654 41.0784 85.8158 41.0309C85.7661 40.9833 85.7382 40.9189 85.7382 40.8517V39.599H85.6899C85.3184 40.1863 84.8222 40.6417 84.2012 40.9661C83.5797 41.2904 82.8335 41.4525 81.962 41.4525C80.9774 41.4525 80.0739 41.2285 79.2508 40.7807ZM98.772 37.9308C99.3288 37.3747 99.6071 36.6487 99.6071 35.7526C99.6071 34.857 99.3288 34.1306 98.772 33.5746C98.2154 33.0185 97.485 32.7404 96.5813 32.7404C95.6774 32.7404 94.9474 33.0185 94.3906 33.5746C93.834 34.1306 93.5554 34.857 93.5554 35.7526C93.5554 36.6487 93.834 37.3747 94.3906 37.9308C94.9474 38.4869 95.6774 38.7649 96.5813 38.7649C97.485 38.7649 98.2154 38.4869 98.772 37.9308ZM95.0926 40.9661C94.4712 40.6417 93.9748 40.1863 93.6039 39.599H93.5554V40.8517C93.5554 40.9189 93.5275 40.9833 93.4778 41.0309C93.4282 41.0784 93.3609 41.1051 93.2907 41.1051H90.8427C90.7725 41.1051 90.7051 41.0784 90.6555 41.0309C90.6058 40.9833 90.578 40.9189 90.578 40.8517V25.1386C90.578 25.0714 90.6058 25.007 90.6555 24.9595C90.7051 24.912 90.7725 24.8853 90.8427 24.8853H93.2907C93.3609 24.8853 93.4282 24.912 93.4778 24.9595C93.5275 25.007 93.5554 25.0714 93.5554 25.1386V31.9062H93.6039C93.9748 31.3192 94.4712 30.8634 95.0926 30.5391C95.7138 30.2146 96.4602 30.0525 97.3318 30.0525C98.316 30.0525 99.2199 30.2764 100.043 30.7244C100.866 31.1727 101.515 31.8251 101.992 32.6822C102.467 33.5399 102.706 34.5636 102.706 35.7527C102.706 36.9424 102.467 37.9656 101.992 38.823C101.516 39.6803 100.866 40.3331 100.043 40.7807C99.2201 41.2287 98.3162 41.4529 97.332 41.4529C96.4604 41.4529 95.7138 41.2905 95.0926 40.9661ZM106.83 41.1052H104.382C104.312 41.1052 104.245 41.0785 104.195 41.031C104.146 40.9835 104.118 40.9191 104.118 40.8519V25.1392C104.118 25.072 104.146 25.0075 104.195 24.96C104.245 24.9125 104.312 24.8858 104.382 24.8858H106.83C106.901 24.8858 106.968 24.9125 107.018 24.96C107.067 25.0075 107.095 25.072 107.095 25.1392V40.8519C107.095 40.9191 107.067 40.9835 107.018 41.031C106.968 41.0785 106.901 41.1052 106.83 41.1052ZM112.605 32.8796C112.199 33.1827 111.925 33.6202 111.783 34.1925C111.744 34.3502 111.873 34.5016 112.042 34.5016H116.701C116.863 34.5016 116.99 34.3631 116.963 34.2104C116.87 33.669 116.628 33.2374 116.236 32.9144C115.776 32.5361 115.175 32.3469 114.432 32.3469C113.69 32.3469 113.081 32.5244 112.605 32.8796ZM118.572 31.5472C119.524 32.5438 120 33.9534 120 35.7759V36.0786C120 36.1458 119.972 36.2102 119.922 36.2578C119.873 36.3053 119.805 36.332 119.735 36.332H111.952C111.913 36.332 111.875 36.3402 111.84 36.3559C111.805 36.3716 111.774 36.3945 111.749 36.4229C111.724 36.4513 111.706 36.4846 111.696 36.5204C111.685 36.5562 111.684 36.5937 111.69 36.6303C111.815 37.3073 112.127 37.8451 112.629 38.2436C113.202 38.6997 113.924 38.9272 114.796 38.9272C115.921 38.9272 116.962 38.507 117.919 37.6662C118.036 37.5635 118.222 37.5853 118.313 37.7102L119.503 39.3453C119.54 39.3961 119.556 39.4584 119.549 39.5201C119.542 39.5818 119.511 39.6388 119.462 39.6801C118.878 40.1695 118.229 40.5826 117.531 40.9083C116.756 41.2711 115.844 41.4529 114.796 41.4529C113.585 41.4529 112.528 41.2171 111.624 40.7461C110.72 40.2752 110.018 39.611 109.519 38.7534C109.018 37.8961 108.768 36.9038 108.768 35.7759C108.768 34.6485 109.01 33.6523 109.494 32.7869C109.978 31.922 110.656 31.2501 111.528 30.771C112.399 30.2925 113.416 30.0528 114.578 30.0528C116.288 30.0528 117.619 30.5511 118.572 31.5472ZM58.3918 26.63C58.3918 27.5858 57.5824 28.3606 56.5837 28.3606C55.5849 28.3606 54.7754 27.5858 54.7754 26.6299C54.7754 25.6739 55.5851 24.8991 56.5837 24.8991C57.5824 24.8991 58.3918 25.6741 58.3918 26.63Z" fill="#333333"/>
<path d="M13.9412 20.3155L2.30118 24.9258C1.65388 25.1822 1.66059 26.0625 2.31194 26.3096L14.0005 30.7464C15.0274 31.1362 16.1711 31.1362 17.1981 30.7464L28.8868 26.3094C29.538 26.0625 29.5451 25.1824 28.8974 24.926L17.2578 20.3154C16.1958 19.8948 15.0031 19.8949 13.9412 20.3155Z" fill="#FCB400"/>
<path d="M16.6364 33.169V44.2528C16.6364 44.7799 17.1918 45.141 17.7037 44.9467L30.7283 40.1076C30.8736 40.0525 30.9982 39.9569 31.086 39.8331C31.1738 39.7094 31.2207 39.5633 31.2207 39.4137V28.33C31.2207 27.8028 30.6653 27.4418 30.1534 27.6361L17.1288 32.4752C16.9835 32.5304 16.859 32.626 16.7712 32.7498C16.6834 32.8735 16.6364 33.0194 16.6364 33.169Z" fill="#18BFFF"/>
<path d="M13.595 33.7409L9.72954 35.5274L9.33707 35.709L1.17741 39.4514C0.660353 39.6902 0 39.3294 0 38.7794V28.3765C0 28.1775 0.106588 28.0057 0.24953 27.8765C0.308171 27.8206 0.374699 27.7728 0.447177 27.7346C0.642001 27.6226 0.920118 27.5927 1.15659 27.6822L13.53 32.3751C14.159 32.6139 14.2084 33.4573 13.595 33.7409Z" fill="#F82B60"/>
<path d="M13.595 33.7409L9.72954 35.5274L0.24953 27.8765C0.308171 27.8206 0.374699 27.7728 0.447177 27.7346C0.642001 27.6226 0.920118 27.5927 1.15659 27.6822L13.53 32.3751C14.159 32.6139 14.2084 33.4573 13.595 33.7409Z" fill="black" fill-opacity="0.25"/>
</svg>
