<svg width="122" height="64" viewBox="0 0 122 64" fill="none" xmlns="http://www.w3.org/2000/svg">
<path d="M79.3008 23.5893H77.9038C76.0669 23.5893 73.8946 23.6856 71.3482 23.5893H70.9412C70.3912 23.5893 69.2253 23.4876 69.2088 23.4876L68.3948 23.4181C67.2949 23.3271 66.162 23.188 64.9575 22.9901L64.0666 22.8403L63.5826 22.7707C63.2746 22.7118 61.9767 22.4336 61.6852 22.3641C61.3937 22.2945 61.1792 22.2464 60.9207 22.1822C60.4588 22.0698 59.9913 21.9414 59.5128 21.8076L58.8528 21.615C58.4074 21.492 57.9564 21.3475 57.4944 21.1977L56.6694 20.9248C56.268 20.7911 55.8665 20.6466 55.454 20.4968L64.523 14.0764L79.3008 23.5893Z" fill="#C6EBF4"/>
<path d="M42.9092 50.8171C41.4426 50.8171 40.3756 50.389 39.7083 49.533C39.041 48.6769 38.7 47.3269 38.6854 45.4828V42.8076C38.6854 40.9243 39.0264 39.56 39.7083 38.7147C40.3903 37.8693 41.4792 37.4466 42.9752 37.4466C43.9183 37.3955 44.8523 37.6495 45.6315 38.1689C45.9336 38.3658 46.1864 38.6262 46.371 38.9308C46.5557 39.2355 46.6676 39.5767 46.6985 39.9292C46.7047 39.9589 46.7212 39.9858 46.7452 40.0052C46.7692 40.0247 46.7992 40.0356 46.8305 40.0362H49.1183C49.1548 40.0362 49.1898 40.0221 49.2156 39.997C49.2413 39.9719 49.2558 39.9379 49.2558 39.9024C49.2466 38.8333 48.8154 37.8085 48.0514 37.04C46.9734 35.8629 45.2355 35.2744 42.8377 35.2744C40.6158 35.2744 38.9329 35.9057 37.7889 37.1684C36.645 38.4311 36.0748 40.3144 36.0785 42.8183V45.9964C36.0785 48.3149 36.6505 50.0609 37.7944 51.2344C38.9384 52.4079 40.6231 52.9964 42.8487 53C45.5325 53 47.3823 52.2617 48.3979 50.785C48.7011 50.3661 48.9401 49.9065 49.1073 49.4206C49.237 48.9295 49.3017 48.4243 49.2998 47.9172C49.2999 47.8826 49.2861 47.8494 49.2615 47.8245C49.2369 47.7995 49.2033 47.7848 49.1678 47.7834H46.836C46.8047 47.784 46.7747 47.795 46.7507 47.8144C46.7267 47.8339 46.7102 47.8607 46.704 47.8904C46.3465 49.6774 45.1145 50.8171 42.9092 50.8171Z" fill="#25314C"/>
<path d="M88.4358 37.559C88.4708 37.559 88.5044 37.5455 88.5291 37.5214C88.5539 37.4973 88.5678 37.4646 88.5678 37.4306V35.4028C88.5686 35.3857 88.5657 35.3687 88.5593 35.3528C88.553 35.3369 88.5433 35.3224 88.5309 35.3103C88.5185 35.2982 88.5036 35.2888 88.4872 35.2826C88.4708 35.2764 88.4533 35.2736 88.4358 35.2744H84.586V31.1279C84.586 31.0938 84.5721 31.0612 84.5473 31.0371C84.5226 31.013 84.489 30.9995 84.454 30.9995L82.1111 31.695C82.0761 31.695 82.0425 31.7086 82.0178 31.7326C81.993 31.7567 81.9791 31.7894 81.9791 31.8234V35.2744H79.4218C79.3868 35.2744 79.3532 35.2879 79.3284 35.312C79.3037 35.3361 79.2898 35.3687 79.2898 35.4028V37.4306C79.2898 37.4646 79.3037 37.4973 79.3284 37.5214C79.3532 37.5455 79.3868 37.559 79.4218 37.559H81.9791V48.2596C81.9791 49.7363 82.3201 50.8171 83.0021 51.5019C83.684 52.1867 84.7822 52.5363 86.2964 52.5506H88.4413C88.4763 52.5506 88.5099 52.537 88.5346 52.513C88.5594 52.4889 88.5733 52.4562 88.5733 52.4222V50.4318C88.5733 50.3978 88.5594 50.3651 88.5346 50.341C88.5099 50.317 88.4763 50.3034 88.4413 50.3034H86.5274C86.2567 50.3324 85.9827 50.2991 85.7276 50.2062C85.4726 50.1133 85.2435 49.9633 85.059 49.7684C84.7111 49.2036 84.5553 48.5464 84.6135 47.8904V37.559H88.4358Z" fill="#25314C"/>
<path d="M64.963 39.8917C64.9511 39.6722 64.9124 39.4549 64.8475 39.2443C64.6191 38.4834 64.2315 37.7767 63.7091 37.1684C62.5651 35.9057 60.8822 35.2744 58.6603 35.2744C56.2625 35.2744 54.5227 35.8629 53.4411 37.04C52.7094 37.8144 52.315 38.8348 52.3412 39.8864C52.3412 39.9218 52.3557 39.9559 52.3814 39.981C52.4072 40.006 52.4422 40.0201 52.4787 40.0201H54.7665C54.7985 40.0193 54.8293 40.0076 54.8533 39.9871C54.8774 39.9666 54.8934 39.9385 54.8985 39.9078C54.9137 39.5602 55.0109 39.2206 55.1826 38.9154C55.3542 38.6102 55.5958 38.3474 55.8885 38.1475C56.6703 37.6292 57.6056 37.3754 58.5503 37.4252C60.0463 37.4252 61.1352 37.8479 61.8172 38.6932C62.1313 39.0954 62.322 39.5758 62.3671 40.079C62.3671 40.2555 62.3671 40.4375 62.3671 40.614V42.508C61.6852 42.4224 61.0032 42.3582 60.3213 42.3154C59.6393 42.2726 59.0783 42.2512 58.6383 42.2512C56.2368 42.2512 54.4751 42.6899 53.3531 43.5674C52.2312 44.4448 51.6702 45.8377 51.6702 47.746C51.6702 49.5294 52.2037 50.8296 53.2706 51.6464C54.2111 52.3526 56.1855 52.7164 58.1764 52.8234C58.7013 52.8457 59.2272 52.8278 59.7493 52.7699C61.4271 52.6284 63.0805 52.2851 64.6715 51.748C64.7565 51.7235 64.8313 51.6736 64.8856 51.6054C64.9399 51.5373 64.9708 51.4543 64.974 51.3681V40.5712C64.9905 40.3251 64.9795 40.095 64.963 39.8917ZM55.839 50.2339C55.5539 50.1414 55.2932 49.9889 55.0756 49.7873C54.8579 49.5858 54.6885 49.34 54.5796 49.0675C54.423 48.6403 54.3484 48.1887 54.3596 47.7353C54.3596 46.5332 54.684 45.6754 55.333 45.1618C55.982 44.6482 57.1553 44.3913 58.8528 44.3913C59.2213 44.3913 61.4157 44.5732 62.2352 44.6642C62.276 44.6682 62.3138 44.6869 62.3413 44.7165C62.3688 44.7462 62.3838 44.7848 62.3836 44.8247V49.854C62.3836 49.889 62.3725 49.9232 62.3518 49.9519C62.3312 49.9806 62.302 50.0025 62.2682 50.0145C60.2079 50.7719 57.9487 50.849 55.839 50.2339Z" fill="#25314C"/>
<path d="M103.967 39.8917C103.95 39.679 103.907 39.4689 103.84 39.2657C103.612 38.5048 103.225 37.7981 102.702 37.1898C101.558 35.9271 99.8752 35.2958 97.6533 35.2958C95.2481 35.2958 93.5084 35.8843 92.4341 37.0614C91.7024 37.8358 91.308 38.8562 91.3342 39.9078C91.3342 39.9432 91.3486 39.9773 91.3744 40.0023C91.4002 40.0274 91.4352 40.0415 91.4716 40.0415H93.7595C93.7915 40.0407 93.8222 40.029 93.8463 40.0085C93.8704 39.988 93.8864 39.9599 93.8915 39.9292C93.9067 39.5816 94.0039 39.242 94.1756 38.9368C94.3472 38.6316 94.5888 38.3688 94.8815 38.1689C95.6629 37.6498 96.5985 37.396 97.5433 37.4466C99.0392 37.4466 100.128 37.8693 100.81 38.7146C101.127 39.1155 101.318 39.5966 101.36 40.1004C101.36 40.2769 101.388 40.4589 101.388 40.6354V42.5294C100.706 42.4438 100.024 42.3796 99.3417 42.3368C98.6598 42.294 98.0933 42.2726 97.6533 42.2726C95.2554 42.2726 93.4955 42.7113 92.3736 43.5888C91.2517 44.4662 90.6925 45.8591 90.6962 47.7674C90.6962 49.5508 91.2297 50.851 92.2966 51.6678C93.2371 52.374 95.2115 52.7378 97.2024 52.8448C97.7273 52.8671 98.2532 52.8492 98.7753 52.7913C100.453 52.6498 102.106 52.3065 103.698 51.7694C103.782 51.7448 103.857 51.695 103.912 51.6268C103.966 51.5587 103.997 51.4757 104 51.3895V40.5712C103.994 40.3251 103.984 40.095 103.967 39.8917ZM94.843 50.2339C94.5579 50.1414 94.2972 49.9889 94.0795 49.7873C93.8619 49.5858 93.6925 49.34 93.5835 49.0675C93.4269 48.6403 93.3524 48.1887 93.3635 47.7353C93.3635 46.5332 93.688 45.6754 94.337 45.1618C94.986 44.6482 96.1592 44.3913 97.8568 44.3913C98.2253 44.3913 100.42 44.5732 101.239 44.6642C101.28 44.6693 101.317 44.6883 101.344 44.7177C101.371 44.7472 101.387 44.7851 101.388 44.8247V49.854C101.386 49.8887 101.374 49.9222 101.354 49.9507C101.334 49.9791 101.305 50.0013 101.272 50.0145C99.2119 50.7719 96.9527 50.849 94.843 50.2339Z" fill="#25314C"/>
<path d="M77.0679 37.7516C77.1005 37.7502 77.1312 37.7366 77.1538 37.7137C77.1763 37.6908 77.1889 37.6603 77.1889 37.6285V35.3975C77.1889 34.9694 74.1695 35.6275 73.8891 35.7131C73.2549 35.8524 72.6593 36.1234 72.1429 36.5076C71.6265 36.8918 71.2015 37.38 70.8972 37.9389V35.9111C70.8972 35.8928 70.8935 35.8747 70.8863 35.8578C70.8791 35.841 70.8686 35.8256 70.8553 35.8127C70.8421 35.7998 70.8263 35.7896 70.8089 35.7826C70.7916 35.7756 70.773 35.772 70.7542 35.772H68.4828C68.4449 35.772 68.4085 35.7866 68.3817 35.8127C68.3549 35.8388 68.3398 35.8742 68.3398 35.9111V52.4222C68.3398 52.4596 68.3547 52.4955 68.3814 52.5225C68.408 52.5494 68.4444 52.5652 68.4828 52.5666H70.8257C70.8641 52.5652 70.9005 52.5494 70.9272 52.5225C70.9538 52.4955 70.9687 52.4596 70.9687 52.4222V43.1715C70.9439 42.0845 71.1694 41.0059 71.6287 40.0148C71.9173 39.3873 72.3778 38.8493 72.9599 38.4595C73.5419 38.0697 74.223 37.8433 74.9285 37.8051C75.4374 37.7428 75.95 37.7125 76.4629 37.7141L77.0679 37.7516Z" fill="#25314C"/>
<path d="M77.9973 24.6005C42.9092 35.0764 17 24.6005 17 24.6005L36.304 11C43.6296 16.2273 49.9983 19.4696 55.454 21.4706C55.8665 21.6204 56.268 21.7648 56.6694 21.8986L57.4944 22.1715C57.9564 22.3213 58.4074 22.4657 58.8528 22.5888L59.5128 22.7814C59.9913 22.9152 60.4587 23.0436 60.9207 23.1559C61.1792 23.2201 61.4322 23.2843 61.6852 23.3378C61.9382 23.3913 63.9236 23.8087 64.0941 23.8408L64.985 23.9906C66.1894 24.1885 67.3334 24.3276 68.4223 24.4186L69.2363 24.4882C69.2363 24.4882 70.4187 24.5684 70.9687 24.5898H71.3757C73.922 24.6808 76.0944 24.5898 77.9313 24.5898L77.9973 24.6005Z" fill="#1B98ED"/>
</svg>
