<svg xmlns="http://www.w3.org/2000/svg" width="347" height="81" fill="none"><g clip-path="url(#a)"><path fill="#fff" d="M94.771 3.043c0-1.968.97-2.952 2.911-2.952 1.94 0 2.911.984 2.911 2.952v10.991h4.548l7.868-12.444a4.996 4.996 0 0 1 .189-.278l.007-.01c.475-.64 1.031-1.014 1.669-1.12.728-.152 1.395-.046 2.001.318a2.497 2.497 0 0 1 1.274 1.544c.212.666.045 1.408-.501 2.225l-.114.174-.003.005-6.978 10.63a9.646 9.646 0 0 1 1.602.914 9.637 9.637 0 0 1 1.582 1.403 12.392 12.392 0 0 1 1.457 1.836c.344.524.669 1.092.976 1.705l.007.013.031.063.03.062 3.73 7.63c.485.97.561 1.802.227 2.498a2.665 2.665 0 0 1-1.501 1.408c-.697.273-1.425.288-2.183.046-.653-.218-1.185-.692-1.594-1.423l-.026-.047a4.986 4.986 0 0 1-.108-.21l-3.593-7.722c-.388-.84-.82-1.55-1.294-2.132-.036-.045-.073-.088-.109-.13a6.613 6.613 0 0 0-.476-.501 5.307 5.307 0 0 0-.885-.68 5.398 5.398 0 0 0-.858-.433c-.712-.285-1.521-.444-2.427-.477a9.92 9.92 0 0 0-.364-.007h-4.184V29.84c0 1.998-.97 2.997-2.911 2.997-1.94 0-2.91-.999-2.91-2.997V3.043Z"/><path fill="#fff" fill-rule="evenodd" d="M129.323 30.884a14.04 14.04 0 0 1-1.984-1.415 13.694 13.694 0 0 1-1.106-1.058 14.146 14.146 0 0 1-1.558-2.007l-.013-.02-.014-.023a15.382 15.382 0 0 1-.692-1.2c-1.043-2.034-1.659-4.353-1.848-6.956l-.001-.01a24.233 24.233 0 0 1-.061-1.754c0-3.36.637-6.267 1.91-8.72a14.318 14.318 0 0 1 2.311-3.274 13.49 13.49 0 0 1 3.056-2.403C131.627.68 134.341 0 137.464 0s5.837.681 8.141 2.044a13.49 13.49 0 0 1 3.056 2.403l.035.037c.885.941 1.644 2.02 2.276 3.237 1.274 2.453 1.91 5.344 1.91 8.675v.045c-.003 1.727-.174 3.338-.514 4.832-.115.507-.25 1-.404 1.48l-.034.106a15.89 15.89 0 0 1-.958 2.303 14.67 14.67 0 0 1-2.255 3.225l-.022.024c-.5.535-1.04 1.027-1.621 1.477-.464.36-.953.691-1.469.996-2.304 1.363-5.018 2.044-8.141 2.044-3.093 0-5.806-.681-8.141-2.044Zm1.273-5.995a9.728 9.728 0 0 1-1.413-2.408l-.012-.028c-.687-1.673-1.031-3.677-1.031-6.012 0-2.346.342-4.351 1.024-6.016a9.505 9.505 0 0 1 1.432-2.431 8.084 8.084 0 0 1 1.433-1.374c1.458-1.083 3.27-1.624 5.435-1.624 2.181 0 3.995.538 5.441 1.615l.042.031c.507.384.969.834 1.385 1.352a9.505 9.505 0 0 1 1.432 2.431c.678 1.654 1.019 3.644 1.024 5.97v.046c0 2.335-.344 4.339-1.031 6.012l-.012.028a9.728 9.728 0 0 1-1.413 2.408 8.12 8.12 0 0 1-1.443 1.402c-1.457 1.094-3.265 1.641-5.425 1.641-2.16 0-3.968-.547-5.425-1.641l-.025-.019a8.128 8.128 0 0 1-1.418-1.383Z" clip-rule="evenodd"/><path fill="#fff" d="M156.423 32.837c-.589-.102-1.114-.4-1.573-.89a4.163 4.163 0 0 1-.246-.29c-.485-.697-.652-1.378-.501-2.045.172-.626.571-1.172 1.198-1.638.035-.027.072-.053.109-.079l.012-.008a9.57 9.57 0 0 0 .339-.239l.024-.018c.65-.48 1.24-1.037 1.769-1.67.288-.346.558-.714.811-1.104l.034-.053a14.58 14.58 0 0 0 .466-.783c.636-1.15 1.141-2.542 1.518-4.175.081-.352.155-.714.224-1.087.361-1.957.569-4.319.623-7.086.009-.487.014-.986.014-1.498V3.543c0-2.06 1.031-3.089 3.093-3.089h16.464c.756 0 1.374.139 1.853.416.827.478 1.24 1.369 1.24 2.673V29.84c0 1.308-.416 2.188-1.247 2.64-.439.238-.994.357-1.664.357-1.94 0-2.911-1-2.911-2.998V5.315h-11.461v6.358c0 3.046-.22 5.737-.66 8.071-.09.474-.188.932-.295 1.376-.559 2.313-1.34 4.31-2.343 5.993l-.024.04-.019.031a15.71 15.71 0 0 1-.389.613 16.439 16.439 0 0 1-1.857 2.36 15.822 15.822 0 0 1-1.093 1.048c-.454.395-.931.766-1.431 1.113l-.03.02c-.011.009-.023.017-.034.024-.656.466-1.327.625-2.013.476ZM189.327 29.84V3.543c0-1.304.413-2.195 1.24-2.673.479-.277 1.096-.416 1.853-.416h21.694c2.062 0 3.093 1.03 3.093 3.089V29.84c0 1.595-.618 2.553-1.855 2.875a4.195 4.195 0 0 1-1.056.122c-1.94 0-2.91-1-2.91-2.998V5.315h-16.237V29.84c0 1.998-.971 2.997-2.911 2.997-.67 0-1.225-.12-1.664-.358-.831-.451-1.247-1.331-1.247-2.64Z"/><path fill="#fff" fill-rule="evenodd" d="M234.47 2.543c.394-.878.864-1.498 1.41-1.862a3.37 3.37 0 0 1 1.955-.59c.698 0 1.319.197 1.865.59.576.364 1.061.984 1.456 1.862l11.646 25.675.005.01.401.885c.115.252.205.494.269.727.205.747.146 1.398-.178 1.953-.318.522-.806.848-1.465.979-.22.043-.46.065-.718.065-.849 0-1.516-.197-2.001-.59a4.332 4.332 0 0 1-.73-.926l-.01-.016a7.992 7.992 0 0 1-.488-.966l-2.274-5.268h-15.646l-2.228 5.268a9.492 9.492 0 0 1-.482.94l-.044.073a4.203 4.203 0 0 1-.702.895c-.425.393-1.031.59-1.82.59-.316 0-.605-.032-.868-.097-.618-.152-1.086-.483-1.406-.993-.344-.55-.419-1.185-.225-1.907.062-.234.152-.476.271-.727l12.007-26.57Zm3.365 4.224 5.777 13.671h-11.644l5.777-13.67h.09Z" clip-rule="evenodd"/><path fill="#fff" d="M258.442 29.84V3.043c0-1.968.97-2.952 2.911-2.952 1.94 0 2.91.984 2.91 2.952v10.991h4.549L276.68 1.59a4.996 4.996 0 0 1 .196-.287c.474-.641 1.031-1.015 1.669-1.121.727-.152 1.394-.046 2.001.318a2.493 2.493 0 0 1 1.273 1.544c.213.666.046 1.408-.5 2.225l-.114.174-.004.005-6.977 10.63c.287.13.565.271.835.426l.062.035a9.403 9.403 0 0 1 1.631 1.2c.227.206.445.425.656.656a12.523 12.523 0 0 1 1.457 1.836c.344.524.669 1.092.976 1.705l.006.013.062.125 3.73 7.63c.485.97.56 1.802.227 2.498a2.664 2.664 0 0 1-1.501 1.408c-.697.273-1.425.288-2.183.046-.654-.218-1.185-.692-1.594-1.423a4.986 4.986 0 0 1-.134-.258l-3.593-7.721c-.389-.84-.82-1.55-1.295-2.132a6.402 6.402 0 0 0-.585-.63 5.356 5.356 0 0 0-.884-.68 5.451 5.451 0 0 0-.859-.434c-.711-.285-1.52-.444-2.426-.477a9.92 9.92 0 0 0-.364-.007h-4.185V29.84c0 1.998-.97 2.997-2.91 2.997-.37 0-.705-.036-1.004-.109-1.272-.308-1.907-1.27-1.907-2.888Z"/><path fill="#fff" fill-rule="evenodd" d="M292.993 30.884a14.03 14.03 0 0 1-1.983-1.415 13.53 13.53 0 0 1-1.106-1.058 14.148 14.148 0 0 1-1.559-2.008l-.027-.042a15.373 15.373 0 0 1-.691-1.2c-1.044-2.034-1.66-4.353-1.848-6.956l-.001-.01a24.233 24.233 0 0 1-.062-1.754c0-3.36.637-6.267 1.911-8.72a14.287 14.287 0 0 1 2.311-3.274c.891-.94 1.91-1.74 3.055-2.403C295.298.68 298.012 0 301.135 0c3.123 0 5.836.681 8.141 2.044a13.485 13.485 0 0 1 3.055 2.403l.035.037a14.25 14.25 0 0 1 2.235 3.158l.021.04.021.04c1.273 2.452 1.91 5.343 1.91 8.674v.045c-.006 3.342-.643 6.249-1.91 8.72l-.042.08a14.56 14.56 0 0 1-2.235 3.17c-.9.962-1.93 1.787-3.09 2.473-2.305 1.363-5.018 2.044-8.141 2.044-3.093 0-5.807-.681-8.142-2.044Zm1.274-5.995a9.73 9.73 0 0 1-1.414-2.408l-.011-.028c-.687-1.673-1.031-3.677-1.031-6.012 0-2.346.341-4.351 1.024-6.016a9.476 9.476 0 0 1 1.432-2.431 8.079 8.079 0 0 1 1.432-1.374c1.459-1.083 3.271-1.624 5.436-1.624 2.181 0 3.994.538 5.44 1.615l.024.018.018.013c.508.384.969.834 1.385 1.352a9.475 9.475 0 0 1 1.432 2.431c.679 1.654 1.02 3.644 1.024 5.97v.046c0 2.335-.343 4.339-1.031 6.012l-.011.028a9.73 9.73 0 0 1-1.414 2.408 8.115 8.115 0 0 1-1.442 1.402c-1.457 1.094-3.265 1.641-5.425 1.641-2.16 0-3.969-.547-5.426-1.641l-.024-.019a8.128 8.128 0 0 1-1.418-1.383ZM345.454 18.667a6.607 6.607 0 0 1 1.204 2.313c.206.695.319 1.453.339 2.274.002.09.003.18.003.272 0 2.847-.97 5.057-2.911 6.631-1.91 1.545-4.578 2.317-8.004 2.317h-11.416c-2.062 0-3.093-1.03-3.093-3.089V3.543c0-2.06 1.031-3.089 3.093-3.089h10.915c3.366 0 5.974.742 7.823 2.226 1.85 1.453 2.775 3.482 2.775 6.086 0 .231-.008.458-.024.68-.022.313-.06.617-.113.913a7.054 7.054 0 0 1-1.933 3.755c-.779.792-1.742 1.401-2.888 1.828 1.223.346 2.261.87 3.114 1.57a7.06 7.06 0 0 1 1.116 1.155Zm-4.77 7.277-.006.009c-.81 1.277-2.341 1.976-4.593 2.096-.235.013-.478.02-.728.02h-8.187v-9.63h8.187c2.178 0 3.764.476 4.757 1.427.068.065.133.133.196.203.449.5.754 1.116.915 1.848.011.05.022.1.031.152a6.323 6.323 0 0 1 .1 1.457c-.036.958-.26 1.764-.672 2.418Zm-13.514-11.91V4.86h7.414c.349 0 .682.011 1 .035 2.156.16 3.609.861 4.359 2.104l.03.051c.284.49.462 1.062.533 1.716a6.271 6.271 0 0 1 0 1.365c-.08.734-.295 1.365-.644 1.892l-.062.09c-.813 1.148-2.294 1.781-4.443 1.9-.249.014-.507.021-.773.021h-7.414Z" clip-rule="evenodd"/><path fill="#fff" d="M248.355 41.978a6.246 6.246 0 0 0 5.649.002h.001c.284-.145.557-.31.815-.495a3.36 3.36 0 0 1 .689-.38c.767-.313 1.634-.324 2.302.166.038.028.075.057.111.087.69.586.889 1.568.405 2.277a1.657 1.657 0 0 1-.238.273 10.238 10.238 0 0 1-2.301 1.595h-.001c-.215.11-.433.21-.655.304l-.052.022a10.23 10.23 0 0 1-5.584.634 10.168 10.168 0 0 1-2.927-.962l-.002-.001a10.255 10.255 0 0 1-2.299-1.597c-.802-.74-.6-1.993.28-2.637.019-.014.038-.028.057-.04.661-.449 1.5-.429 2.246-.125.242.1.475.229.688.381.258.185.53.35.815.495h.001ZM243.138 50.144v20.12l16.237-21.21c.454-.605.894-1.03 1.318-1.271.2-.129.43-.227.69-.294.293-.077.624-.115.993-.115.608 0 1.111.17 1.507.507.078.067.152.14.222.22.424.484.636 1.135.636 1.953v27.25c0 1.878-.894 2.816-2.683 2.816-1.819 0-2.729-.938-2.729-2.816V57.14l-16.237 21.255c-.485.606-.925 1.045-1.319 1.317-.364.273-.894.41-1.592.41-.566 0-1.035-.118-1.405-.354-.65-.413-.998-1.189-1.045-2.326a6.05 6.05 0 0 1-.006-.273V50.144l.002-.136c.023-.935.292-1.62.806-2.058.08-.068.166-.13.258-.186.426-.26.981-.39 1.663-.39.206 0 .399.012.581.036 1.402.188 2.103 1.1 2.103 2.734ZM231.057 63.497c0 .557-.102 1.013-.307 1.369-.363.632-1.049.948-2.058.948h-12.735v9.31h13.736c.404 0 .757.051 1.057.153.801.27 1.234.9 1.299 1.891.006.088.009.179.009.273 0 1.048-.363 1.74-1.089 2.077-.344.16-.77.239-1.276.239h-16.237c-2.062 0-3.093-1.03-3.093-3.089V50.826c0-.242.014-.469.043-.682.154-1.163.732-1.905 1.731-2.225a4.34 4.34 0 0 1 1.319-.182h16.237c.5 0 .922.077 1.263.23.735.327 1.102 1.008 1.102 2.041l-.002.136c-.033 1.092-.468 1.782-1.306 2.07-.3.104-.653.156-1.057.156h-13.736v8.811h12.735c1.009 0 1.695.316 2.058.948.205.356.307.812.307 1.368ZM202.894 47.737c.324 0 .617.03.878.091 1.082.252 1.623 1.024 1.623 2.316 0 .246-.019.473-.056.682-.187 1.036-.837 1.617-1.951 1.744-.156.018-.32.027-.494.027h-13.236v24.526c0 1.998-.97 2.997-2.91 2.997-1.941 0-2.911-.999-2.911-2.997V50.735c0-.19.009-.37.027-.542.172-1.637 1.163-2.456 2.975-2.456h16.055ZM145.462 47.737c.552 0 1.007.093 1.366.279.666.344.999 1.008.999 1.992 0 .247-.019.474-.057.681-.145.78-.562 1.288-1.25 1.526a3.25 3.25 0 0 1-1.058.155h-13.735v8.811h12.735c1.008 0 1.695.316 2.058.948.205.356.307.812.307 1.368 0 .557-.102 1.013-.307 1.369-.363.632-1.05.948-2.058.948h-12.735v9.31h13.735c.405 0 .757.051 1.058.153.788.266 1.22.881 1.295 1.846.008.102.012.208.012.318 0 1.038-.356 1.727-1.069 2.067-.347.166-.779.249-1.296.249h-16.237c-1.164 0-2-.329-2.507-.985-.376-.489-.571-1.158-.585-2.01V50.827c0-.16.006-.314.018-.461l.005-.055c.06-.619.23-1.126.513-1.521.501-.701 1.353-1.052 2.556-1.052h16.237Z"/><path fill="#fff" fill-rule="evenodd" d="M153.495 77.123V50.689c0-.242.015-.469.044-.68.121-.863.488-1.48 1.1-1.85.464-.281 1.068-.422 1.812-.422h10.961c3.517 0 6.231.878 8.141 2.634.503.462.939.972 1.309 1.53 1.038 1.564 1.557 3.507 1.557 5.828s-.519 4.272-1.557 5.853a8.48 8.48 0 0 1-1.309 1.55c-1.91 1.756-4.624 2.635-8.141 2.635h-8.096v9.356c0 1.998-.97 2.997-2.91 2.997-.762 0-1.374-.154-1.837-.461-.652-.434-1.007-1.173-1.066-2.218a6.553 6.553 0 0 1-.008-.318Zm5.821-13.944V52.324h7.186c.316 0 .619.01.91.031 2.099.147 3.582.825 4.45 2.032.611.85.917 1.965.917 3.342 0 1.395-.308 2.521-.924 3.38l-.028.039c-.872 1.187-2.344 1.854-4.415 2-.291.021-.594.031-.91.031h-7.186Z" clip-rule="evenodd"/><path fill="#fff" d="M119.158 72.969c.385.21.685.52.901.93.333.544.44 1.15.318 1.816a2.38 2.38 0 0 1-.406.954 3.542 3.542 0 0 1-.822.817l-.019.014-.069.05c-.641.454-1.347.854-2.12 1.2-.323.145-.656.28-1.001.406a17.208 17.208 0 0 1-1.322.418 19.44 19.44 0 0 1-4.929.637c-3.335 0-6.201-.666-8.596-1.998a13.915 13.915 0 0 1-3.03-2.34 14.127 14.127 0 0 1-2.428-3.383c-1.273-2.483-1.91-5.404-1.91-8.765 0-3.361.637-6.268 1.91-8.72a13.894 13.894 0 0 1 2.435-3.378l.031-.031a13.576 13.576 0 0 1 2.992-2.269c2.395-1.362 5.261-2.044 8.596-2.044l.182.001c1.548.014 3.071.212 4.567.593l.163.042a17.038 17.038 0 0 1 1.899.622 13.135 13.135 0 0 1 2.331 1.195c.066.043.129.086.191.13l.062.047a3.168 3.168 0 0 1 .852.913c.147.242.248.5.305.772.151.696.06 1.347-.273 1.953a2.5 2.5 0 0 1-.81.859 2.834 2.834 0 0 1-.691.322c-.667.181-1.41 0-2.229-.545a9.988 9.988 0 0 0-.21-.133l-.012-.007a10.074 10.074 0 0 0-2.294-1.03l-.116-.035-.211-.06-.071-.018-.035-.01a13.652 13.652 0 0 0-3.6-.433c-2.371.028-4.322.59-5.853 1.689l-.019.013c-.498.36-.951.777-1.359 1.25a9.005 9.005 0 0 0-1.482 2.365c-.71 1.633-1.065 3.616-1.065 5.947 0 2.34.358 4.336 1.075 5.987l.012.028c.384.879.871 1.66 1.46 2.341a7.847 7.847 0 0 0 1.422 1.295c1.524 1.077 3.46 1.63 5.809 1.657h.182a14.397 14.397 0 0 0 3.505-.434l.029-.008.031-.009.063-.018a12.305 12.305 0 0 0 2.664-1.124l.04-.023c.088-.05.176-.102.263-.155.819-.514 1.546-.681 2.183-.5.183.053.353.122.509.207Z"/><path fill="#F17519" d="M80 40C80 17.909 62.091 0 40 0S0 17.909 0 40s17.909 40 40 40 40-17.909 40-40Z"/><path fill="url(#b)" d="M80 40C80 17.909 62.091 0 40 0S0 17.909 0 40s17.909 40 40 40 40-17.909 40-40Z"/><path fill="#fff" d="M22.54 17h-1.27c-.702 0-1.27.57-1.27 1.275v43.352c0 .705.568 1.276 1.27 1.276h1.27c.7 0 1.269-.571 1.269-1.276V18.275c0-.704-.569-1.275-1.27-1.275ZM32.045 40.363a.64.64 0 0 1 0-.714l13.07-19.404a1.924 1.924 0 0 0-.51-2.657 1.903 1.903 0 0 0-2.645.513L27.994 38.83c-.017.026-.577.828-.33 1.69a2.484 2.484 0 0 0 .246.532l14.405 21.386a1.269 1.269 0 0 0 1.763.342l1.051-.714a1.275 1.275 0 0 0 .341-1.77L32.045 40.363Z"/><path fill="#fff" d="M61.085 45.003a1.657 1.657 0 0 0-2.103.401 8.509 8.509 0 0 1-4.295 2.422 8.484 8.484 0 0 1-4.913-.371 8.523 8.523 0 0 1-3.886-3.04 8.579 8.579 0 0 1-.273-9.469 8.529 8.529 0 0 1 3.705-3.26 8.485 8.485 0 0 1 9.311 1.512c.12.112.238.226.351.345l.106.106a1.711 1.711 0 0 0 2.421 0 1.674 1.674 0 0 0 .18-2.157l-.015-.02a1.58 1.58 0 0 0-.082-.107.802.802 0 0 0-.056-.066 11.87 11.87 0 0 0-3.992-2.815c-1.51-.65-3.138-.98-4.782-.965-6.442.048-11.723 5.313-11.813 11.784a11.99 11.99 0 0 0 2.008 6.815 11.914 11.914 0 0 0 5.506 4.465 11.855 11.855 0 0 0 7.056.538 11.892 11.892 0 0 0 6.114-3.58.854.854 0 0 0 .055-.073l.067-.113a1.743 1.743 0 0 0-.67-2.352Z"/><path fill="#fff" d="M52.95 35.558c.981 0 1.926.372 2.645 1.043.055.05.105.106.16.157l.047.047a.784.784 0 0 0 1.108 0 .766.766 0 0 0 .082-.987l-.007-.009a.532.532 0 0 0-.038-.049 5.443 5.443 0 0 0-2.817-1.628 5.428 5.428 0 0 0-3.203.26 5.454 5.454 0 0 0-2.5 2.028 5.49 5.49 0 0 0 .04 6.167 5.453 5.453 0 0 0 2.525 1.994 5.426 5.426 0 0 0 6.002-1.448l.031-.05a.798.798 0 0 0-.307-1.077.76.76 0 0 0-.963.184 3.895 3.895 0 0 1-3.514 1.133 3.89 3.89 0 0 1-1.73-.795 3.912 3.912 0 0 1-1.444-3.411 3.905 3.905 0 0 1 2.037-3.091 3.885 3.885 0 0 1 1.846-.468Z"/></g><defs><radialGradient id="b" cx="0" cy="0" r="1" gradientTransform="rotate(-161.226 33.27 16.41) scale(78.3674 5078.42)" gradientUnits="userSpaceOnUse"><stop stop-color="#F6A11A"/><stop offset="1" stop-color="#F6A11A" stop-opacity="0"/></radialGradient><clipPath id="a"><path fill="#fff" d="M0 0h347v81H0z"/></clipPath></defs></svg>