<svg xmlns="http://www.w3.org/2000/svg" fill="none" viewBox="0 0 40 40"><path fill="#fff" fill-rule="evenodd" d="M22.978 6.342c-.758-3.123-5.198-3.123-5.956 0a3.065 3.065 0 0 1-4.574 1.894c-2.744-1.672-5.884 1.468-4.212 4.212a3.065 3.065 0 0 1-1.894 4.574c-3.123.758-3.123 5.198 0 5.956a3.065 3.065 0 0 1 1.894 4.574c-1.672 2.744 1.468 5.884 4.212 4.212a3.065 3.065 0 0 1 4.574 1.894c.758 3.123 5.198 3.123 5.956 0a3.065 3.065 0 0 1 4.574-1.894c2.744 1.672 5.884-1.468 4.212-4.212a3.065 3.065 0 0 1 1.894-4.574c3.123-.758 3.123-5.198 0-5.956a3.065 3.065 0 0 1-1.894-4.574c1.672-2.744-1.468-5.884-4.212-4.212a3.065 3.065 0 0 1-4.574-1.894ZM20 26a6 6 0 1 0 0-12 6 6 0 0 0 0 12Z" clip-rule="evenodd"/></svg>