<svg xmlns="http://www.w3.org/2000/svg" fill="none" viewBox="0 0 147 77"><path fill="#fff" d="M56.691.892c-4.85-.37-9.798.454-14.535 2.423l-1.559.637-1.477.7-2.832 1.442-2.626 1.533a24.83 24.83 0 0 0-2.472 1.54c-1.589 1.08-3.095 2.061-4.436 3.154l-2.01 1.56-1.838 1.585A98.008 98.008 0 0 0 12.059 26.54a92.796 92.796 0 0 0-5.77 7.633 45.811 45.811 0 0 0-2.56 4.138l.005-.331c.069-1.59.183-3.17.301-4.66l.654-7.993c.294-4.576.316-7.463-.149-7.57-.465-.109-1.37 2.662-2.32 7.186-.522 2.252-.971 4.969-1.388 8.011a72.7 72.7 0 0 0-.522 4.84c-.028.429-.055.856-.063 1.303l-.016.69v.362l.025.512c-.002.425.068.838.207 1.216.138.377.342.711.6.981a3.306 3.306 0 0 0 2.096.861l.272.063.182.043.34.078c.227.053.45.018.675.026.443.001.865-.017 1.299-.032.842-.022 1.66-.093 2.428-.161 1.601-.15 3.126-.333 4.571-.534 2.893-.415 5.489-.885 7.642-1.356 4.326-.923 6.96-1.818 6.898-2.324-.063-.506-2.794-.53-7.126-.202-2.178.161-4.766.343-7.638.561-1.423.105-2.917.208-4.471.311-.774.038-1.548.076-2.33.097l-.55.003c.668-.77 1.668-2.044 3.333-4.074 1.448-1.763 3.344-4.116 5.994-7.046a105.05 105.05 0 0 1 10.679-10.346l1.753-1.634 1.936-1.446c1.288-1.019 2.733-1.943 4.262-2.92.755-.521 1.531-.994 2.324-1.415l2.478-1.408 2.679-1.246c.456-.213.911-.426 1.348-.658.436-.231.947-.374 1.43-.551 4.116-1.724 8.415-2.462 12.636-2.168 2.229.203 4.358.961 6.25 2.228 1.864 1.288 3.355 3.182 4.315 5.482a43.884 43.884 0 0 0-6.954 6.65c-2.579 2.97-4.658 6.486-6.109 10.333a21.029 21.029 0 0 0-1.14 6.115c-.122 2.356.41 4.629 1.516 6.47.722 1.146 1.714 2.006 2.867 2.486a5.901 5.901 0 0 0 3.797.227c1.992-.594 3.827-1.905 5.243-3.748 2.188-2.918 3.836-6.328 4.82-9.98A38.444 38.444 0 0 0 72.5 21.33a27.73 27.73 0 0 0-.676-6.738c2.683-1.703 5.544-2.902 8.473-3.551a20.07 20.07 0 0 1 5.136-.345c1.689.13 3.34.513 4.914 1.137 3.164 1.314 5.993 3.448 8.294 6.259a21.907 21.907 0 0 1 2.91 4.477c.392.796.744 1.62 1.054 2.472.281.852.517 1.728.708 2.623.21.924.358 1.873.443 2.836a65.567 65.567 0 0 0-6.615 5.702c-2.738 2.635-5.187 5.675-7.279 9.035a17.57 17.57 0 0 0-2.376 5.93c-.263 1.38-.079 2.783.514 3.923.18.326.392.622.633.884.234.228.468.456.709.656.257.216.536.397.831.54.29.177.603.303.93.374 1.207.356 2.506.274 3.736-.235a8.858 8.858 0 0 0 1.561-.752c.462-.292.911-.613 1.346-.962a21.248 21.248 0 0 0 4.233-4.806c2.285-3.438 3.932-7.377 4.819-11.528a31.12 31.12 0 0 0 .739-6.295c.015-.531.008-1.068-.01-1.608a49.48 49.48 0 0 1 8.429-4.862c2.951-1.352 6.016-2.207 9.099-2.538 2.96-.346 5.894.066 8.603 1.21 2.513 1.105 4.744 2.876 6.534 5.186 1.629 2.06 2.843 4.545 3.562 7.29 1.101 4.846.508 10.176-1.652 14.834a41.336 41.336 0 0 1-3.093 5.982 58.932 58.932 0 0 1-3.393 5.001 85.35 85.35 0 0 1-6.255 7.347c-3.65 3.842-5.88 5.728-5.787 5.894a6.686 6.686 0 0 0 1.757-1.185 67.102 67.102 0 0 0 4.621-4.008 75.566 75.566 0 0 0 6.638-7.143 58.14 58.14 0 0 0 3.631-4.946 44.17 44.17 0 0 0 3.388-6.116 31.015 31.015 0 0 0 2.316-7.477c.504-2.892.433-5.828-.206-8.568-.777-3.058-2.107-5.83-3.903-8.136-1.981-2.662-4.473-4.72-7.296-6.027a19.396 19.396 0 0 0-9.75-1.576c-3.357.305-6.702 1.172-9.932 2.576a52.308 52.308 0 0 0-7.746 4.182 24.052 24.052 0 0 0-.256-1.376 24.565 24.565 0 0 0-1.987-6.188 25.335 25.335 0 0 0-3.369-5.278c-2.698-3.314-6.016-5.838-9.729-7.4a20.675 20.675 0 0 0-6.025-1.395 23.063 23.063 0 0 0-6.127.39c-3.172.667-6.28 1.9-9.214 3.655-1.318-2.832-3.245-5.164-5.605-6.78A17.405 17.405 0 0 0 56.61.99l.081-.097Zm47.082 33.359a27.335 27.335 0 0 1-.547 4.328c-.754 3.673-2.175 7.168-4.161 10.233a17.707 17.707 0 0 1-3.417 3.969c-.303.277-.644.458-.964.703-.32.19-.65.356-.987.494a2.48 2.48 0 0 1-1.69.173.668.668 0 0 1-.363-.084c-.113-.026-.238-.055-.334-.207l-.25-.318a.929.929 0 0 1-.182-.245 2.681 2.681 0 0 1-.163-1.672c.35-1.67.986-3.262 1.87-4.673a44.64 44.64 0 0 1 6.644-8.459c1.476-1.49 2.999-2.903 4.567-4.237l-.023-.005ZM67.951 17.485c.523 4.264.1 8.709-1.23 12.908-.82 3.054-2.179 5.914-3.983 8.38-.784 1.048-1.796 1.821-2.905 2.22a1.78 1.78 0 0 1-1.236-.045 1.963 1.963 0 0 1-.944-.864c-.63-1.137-.922-2.51-.837-3.926a16.46 16.46 0 0 1 .867-4.732c1.258-3.309 3.045-6.339 5.254-8.91a40.65 40.65 0 0 1 5.057-5.064"/></svg>